<?xml version="1.0" standalone="no"?>
<!DOCTYPE svg PUBLIC "-//W3C//DTD SVG 1.1//EN" "http://www.w3.org/Graphics/SVG/1.1/DTD/svg11.dtd" >
<!--
2013-9-30: Created.
-->
<svg>
<metadata>
Created by iconfont
</metadata>
<defs>

<font id="iconfont" horiz-adv-x="1024" >
  <font-face
    font-family="iconfont"
    font-weight="500"
    font-stretch="normal"
    units-per-em="1024"
    ascent="896"
    descent="-128"
  />
    <missing-glyph />
    
    <glyph glyph-name="x" unicode="x" horiz-adv-x="1001"
d="M281 543q-27 -1 -53 -1h-83q-18 0 -36.5 -6t-32.5 -18.5t-23 -32t-9 -45.5v-76h912v41q0 16 -0.5 30t-0.5 18q0 13 -5 29t-17 29.5t-31.5 22.5t-49.5 9h-133v-97h-438v97zM955 310v-52q0 -23 0.5 -52t0.5 -58t-10.5 -47.5t-26 -30t-33 -16t-31.5 -4.5q-14 -1 -29.5 -0.5
t-29.5 0.5h-32l-45 128h-439l-44 -128h-29h-34q-20 0 -45 1q-25 0 -41 9.5t-25.5 23t-13.5 29.5t-4 30v167h911zM163 247q-12 0 -21 -8.5t-9 -21.5t9 -21.5t21 -8.5q13 0 22 8.5t9 21.5t-9 21.5t-22 8.5zM316 123q-8 -26 -14 -48q-5 -19 -10.5 -37t-7.5 -25t-3 -15t1 -14.5
t9.5 -10.5t21.5 -4h37h67h81h80h64h36q23 0 34 12t2 38q-5 13 -9.5 30.5t-9.5 34.5q-5 19 -11 39h-368zM336 498v228q0 11 2.5 23t10 21.5t20.5 15.5t34 6h188q31 0 51.5 -14.5t20.5 -52.5v-227h-327z" />
    

    
    <glyph glyph-name="guanbi" unicode="&#58900;" d="M150.760004 662.728329C228.458002 740.427531 328.650788 790.823759 439.344997 806.7234c135.313125 19.420586 270.151813-15.048305 379.578048-97.015026 109.451522-81.992008 180.432752-201.688468 199.8714-337.025675 40.132024-279.470756-154.62052-539.387265-433.951594-579.54578-117.131613-16.806369-237.237484 7.736686-338.210562 69.040135-17.268764 10.500218-22.751274 32.998619-12.278752 50.2433 10.572467 17.138715 32.963699 22.777765 50.237279 12.28116 86.490725-52.569724 189.428982-73.591834 289.8626-59.160056 239.379673 34.33523 406.30664 257.173447 371.944919 496.746989-16.652237 115.994892-77.494495 218.574311-171.32574 288.828232-93.808366 70.281617-209.364945 99.785783-325.332142 83.109463C210.100683 699.883686 43.245965 477.018977 77.661873 237.497214c9.020313-62.702675 30.79261-121.299187 64.797902-174.121784 10.907221-17.0183 5.944905-39.719-10.939734-50.549155-16.985788-10.937325-39.637117-6.023175-50.546747 10.938529C41.279582 85.534261 15.834617 153.898865 5.263354 227.104166c-19.422994 135.315533 15.020609 270.190346 97.066805 379.641868C117.250824 626.733776 133.435849 645.40297 150.760004 662.728329L150.760004 662.728329zM150.760004 662.728329M567.228495 305.469265 725.345877 461.869523c14.367958 14.183723 14.477536 37.334776 0.290201 51.70153-14.189744 14.375183-37.373309 14.485965-51.707551 0.297426l-158.334129-156.588107L359.674596 513.684244c-14.300526 14.294505-37.411842 14.373979-51.707551 0.071045-14.299321-14.259584-14.334242-37.404617-0.071045-51.706346l155.700646-156.178694-156.985477-155.305683c-14.366754-14.228276-14.479944-37.334776-0.288997-51.707551 7.163509-7.244187 16.565538-10.859055 26.001284-10.859055 9.284023 0 18.574066 3.542619 25.703858 10.56765l157.203429 155.48149 158.481036-158.996413c7.129792-7.164713 16.492085-10.748273 25.889298-10.748273 9.361088 0 18.686052 3.58356 25.817049 10.67482 14.294505 14.261993 14.333038 37.373309 0.073453 51.707551L567.228495 305.469265 567.228495 305.469265zM567.228495 305.469265"  horiz-adv-x="1024" />

    
    <glyph glyph-name="38" unicode="&#58880;" d="M864.384 521.696c-14.976-33.728-34.24-68.928-53.632-101.504l44.416 0c15.168-36.48 24.384-74.88 27.392-114.368l-113.792 0c-0.64 14.592-1.536 28.736-3.072 42.88-23.872-35.968-41.472-59.84-41.472-59.84s-4.8 6.528-12.672 17.6c0-0.192 0-0.384 0-0.704l-170.88 0L540.672 420.192l96.704 0c-11.008 18.496-21.952 37.76-32.128 57.216L540.608 477.408 540.608 644.768c4.928-1.472 9.856-3.328 14.784-5.504 1.536 23.232 7.104 44.224 16.064 62.72C552 704.672 532.16 706.08 512 706.08c-236.864 0-428.8-192-428.8-428.8 0-236.736 191.936-428.736 428.8-428.736 236.8 0 428.8 192 428.8 428.736C940.8 368.032 912.512 452.32 864.384 521.696zM249.216 540.064c30.08 30.08 64.512 54.4 102.528 72.64C324.032 575.904 301.056 529.888 284.352 477.344L198.656 477.344C213.12 499.872 229.952 520.864 249.216 540.064zM168.832 420.192l100.544 0c-7.68-36.16-12.48-74.432-14.016-114.368l-113.92 0C144.384 345.312 153.6 383.712 168.832 420.192zM141.376 248.608l113.92 0c1.536-39.744 6.4-78.208 14.016-114.24L168.832 134.368C153.6 170.848 144.384 209.248 141.376 248.608zM249.216 14.496c-19.2 19.264-36.032 40.128-50.496 62.656l85.696 0c16.704-52.48 39.68-98.56 67.328-135.296C313.664-39.968 279.296-15.648 249.216 14.496zM483.392-90.208c-13.056 3.904-25.984 10.176-38.656 19.136-23.744 16.704-46.464 42.432-65.664 74.56-13.312 22.08-24.768 46.72-34.432 73.664l138.688 0L483.328-90.208zM483.392 134.368l-155.52 0c-8.576 36.48-13.696 74.88-15.424 114.24l170.944 0L483.392 134.368zM483.392 305.824 312.448 305.824c1.728 39.488 6.848 77.824 15.424 114.368l155.52 0L483.392 305.824zM483.392 477.344 344.704 477.344c9.6 26.88 21.12 51.584 34.432 73.664 19.2 32.064 41.92 57.792 65.664 74.56 12.672 8.96 25.536 15.296 38.656 19.136L483.456 477.344zM540.608 248.608l170.88 0c-1.6-39.36-6.848-77.76-15.424-114.24L540.608 134.368 540.608 248.608zM579.2-71.072c-12.672-8.96-25.536-15.232-38.592-19.136l0 167.36 138.688 0c-9.536-26.944-21.056-51.648-34.304-73.664C625.664-28.64 603.008-54.368 579.2-71.072zM774.72 14.496c-30.016-30.144-64.512-54.528-102.528-72.64 27.776 36.736 50.624 82.816 67.392 135.296l85.696 0C810.816 54.624 793.92 33.76 774.72 14.496zM855.168 134.368 754.56 134.368c7.68 36.032 12.608 74.496 14.208 114.24l113.792 0C879.552 209.248 870.4 170.848 855.168 134.368zM724.928 751.52c-77.504 0-133.248-49.6-133.376-128.384 0-85.44 133.376-265.088 133.376-265.088s133.248 180.416 133.248 265.088C858.176 701.088 804.864 751.52 724.928 751.52zM776.576 638.368c0-28.544-22.784-51.776-51.008-51.776-28.096 0-51.008 23.168-51.008 51.776 0 26.176 19.136 47.808 44.032 51.264 3.136 0.704 6.272 1.024 9.536 1.024 26.752 0 48.448-21.696 48.448-48.384 0-0.448-0.064-0.768-0.064-1.088C776.576 640.16 776.576 639.264 776.576 638.368z"  horiz-adv-x="1024" />

    
    <glyph glyph-name="chaxun1" unicode="&#58884;" d="M992-180c-9.6-9.6-22.4-9.6-28.8 0l-188.8 188.8c9.6 9.6 19.2 19.2 28.8 28.8L992-148C998.4-157.6 998.4-170.4 992-180zM454.4-71.2c-236.8 0-428.8 192-428.8 428.8 0 236.8 192 428.8 428.8 428.8 236.8 0 428.8-192 428.8-428.8C883.2 120.8 691.2-71.2 454.4-71.2zM454.4 741.6c-214.4 0-384-172.8-384-384 0-214.4 172.8-387.2 384-387.2 214.4 0 387.2 172.8 387.2 387.2C841.6 572 668.8 741.6 454.4 741.6z"  horiz-adv-x="1024" />

    
    <glyph glyph-name="logo" unicode="&#58895;" d="M485.268 208.603c18.209 0 33.010-14.759 33.010-33.010 0-18.209-14.813-33.010-33.010-33.010-18.255 0-33.010 14.813-33.010 33.010 0 18.255 14.759 33.010 33.010 33.010zM859.38 646.023c67.45 0 122.118-54.675 122.118-122.118 0-67.45-54.675-122.118-122.118-122.118-67.45 0-122.171 54.675-122.171 122.118 0 67.45 54.723 122.118 122.171 122.118zM597.374 753.344c58.375 0 105.642-47.324 105.642-105.642s-47.276-105.642-105.642-105.642c-58.326 0-105.593 47.324-105.593 105.642 0 58.326 47.276 105.642 105.593 105.642zM332.503 693.34c52.851 0 95.726-42.828 95.726-95.726 0-52.851-42.879-95.726-95.726-95.726-52.9 0-95.726 42.879-95.726 95.726 0 52.9 42.828 95.726 95.726 95.726zM150.223 514.38c49.247 0 89.166-39.919 89.166-89.108 0-49.247-39.919-89.108-89.166-89.108-49.199 0-89.108 39.869-89.108 89.108 0 49.199 39.919 89.108 89.108 89.108zM119.927 276.692c41.886 0 75.889-33.996 75.889-75.889 0-41.939-33.996-75.936-75.889-75.936-41.939 0-75.936 33.996-75.936 75.936 0 41.886 33.996 75.889 75.936 75.889zM197.596 66.789c34.636 0 62.717-28.124 62.717-62.766 0-34.591-28.075-62.717-62.717-62.717-34.636 0-62.717 28.124-62.717 62.717 0 34.636 28.075 62.766 62.717 62.766zM342.021-46.501c30.989 0 56.096-25.119 56.096-56.096s-25.119-56.096-56.096-56.096c-30.989 0-56.096 25.119-56.096 56.096 0 30.989 25.119 56.096 56.096 56.096zM501.497-72.996c27.333 0 49.492-22.154 49.492-49.537 0-27.333-22.154-49.492-49.492-49.492-27.333 0-49.492 22.154-49.492 49.492 0 27.38 22.154 49.537 49.492 49.537zM612.913-17.042c23.683 0 42.929-19.19 42.929-42.929 0-23.683-19.241-42.879-42.929-42.879-23.683 0-42.879 19.19-42.879 42.879 0 23.733 19.19 42.929 42.879 42.929zM635.411 93.041c21.911 0 39.629-17.702 39.629-39.574 0-21.911-17.702-39.629-39.629-39.629-21.853 0-39.574 17.702-39.574 39.629 0 21.853 17.702 39.574 39.574 39.574zM576.788 179.435c20.083 0 36.314-16.238 36.314-36.271 0-20.083-16.238-36.314-36.314-36.314-20.033 0-36.314 16.238-36.314 36.314 0 20.033 16.279 36.271 36.314 36.271z"  horiz-adv-x="1024" />

    
    <glyph glyph-name="iconjia" unicode="&#58917;" d="M902.947 228.973h-332.293v-332.346c0-32.387-26.267-58.628-58.655-58.628-32.387 0-58.654 26.241-58.654 58.628v332.346h-332.295c-32.414 0-58.654 26.241-58.654 58.628 0 32.375 26.243 58.628 58.654 58.628h332.293v332.346c0 32.375 26.267 58.628 58.654 58.628 32.388 0 58.655-26.254 58.655-58.628v-332.347h332.293c32.414 0 58.655-26.252 58.655-58.626-0.001-32.387-26.241-58.626-58.655-58.626z"  horiz-adv-x="1024" />

    
    <glyph glyph-name="jiahao" unicode="&#58922;" d="M896 332 544 332 544 684 480 684 480 332 128 332 128 268 480 268 480-84 544-84 544 268 896 268Z"  horiz-adv-x="1024" />

    
    <glyph glyph-name="close" unicode="&#58898;" d="M512.751 851.002c-264.022 0-478.089-214.066-478.089-478.09 0-264.022 214.066-478.09 478.089-478.09 264.022 0 478.09 214.067 478.09 478.09 0 264.023-214.067 478.09-478.09 478.09zM512.751-73.305c-246.048 0-446.217 200.169-446.217 446.217 0 246.049 200.169 446.218 446.217 446.218 246.049 0 446.217-200.169 446.217-446.218 0-246.048-200.167-446.217-446.217-446.217zM696.019 577.99l-183.299-183.298-183.236 183.298-21.819-21.852 183.267-183.251-183.252-183.236 21.804-21.806 183.236 183.235 183.299-183.25 21.805 21.819-183.239 183.237 183.253 183.298-21.819 21.805z"  horiz-adv-x="1024" />

    
    <glyph glyph-name="weixin" unicode="&#58939;" d="M498.816 466.944c26.336 0 43.936 17.632 43.936 43.904 0 26.56-17.568 43.744-43.936 43.744s-52.832-17.184-52.832-43.744C446.016 484.576 472.48 466.944 498.816 466.944zM253.088 554.592c-26.336 0-52.96-17.184-52.96-43.744 0-26.272 26.624-43.904 52.96-43.904 26.24 0 43.808 17.632 43.808 43.904C296.864 537.408 279.328 554.592 253.088 554.592zM1024 185.888c0 138.88-128.832 257.216-286.976 269.536 0.224 1.728 0.32 3.52-0.064 5.312-31.712 147.84-190.688 259.296-369.824 259.296C164.704 720.032 0 578.88 0 405.376c0-93.088 47.52-176.96 137.568-243.104l-31.392-94.368c-2.016-6.144-0.192-12.896 4.704-17.152 2.976-2.56 6.72-3.904 10.496-3.904 2.432 0 4.896 0.576 7.168 1.696L246.4 107.52l14.528-2.944c36.288-7.456 67.616-13.92 106.208-13.92 11.36 0 22.88 0.512 34.176 1.472 4.576 0.384 8.448 2.688 11.072 6.016 42.496-106.336 159.616-183.104 297.44-183.104 35.296 0 71.04 8.512 103.104 16.544l90.848-49.664c2.4-1.312 5.056-1.984 7.68-1.984 3.584 0 7.168 1.216 10.048 3.552 5.056 4.096 7.136 10.848 5.248 17.024l-23.2 77.152C981.344 39.136 1024 112.672 1024 185.888zM398.592 124.032c-10.4-0.896-20.96-1.344-31.424-1.344-35.328 0-65.216 6.112-99.776 13.248L247.296 140c-3.456 0.736-7.104 0.256-10.272-1.376l-88.288-44.192 22.944 68.928c2.24 6.752-0.224 14.112-6.016 18.176C76.96 243.36 32 318.688 32 405.376c0 155.84 150.336 282.656 335.136 282.656 163.36 0 308-99.392 337.856-231.584-171.296-2.24-309.888-122.656-309.888-270.56 0-21.504 3.264-42.336 8.768-62.432C402.208 123.872 400.448 124.192 398.592 124.032zM875.456-3.552c-5.344-4.032-7.616-10.976-5.696-17.376l15.136-50.336-62.112 33.984c-2.368 1.312-5.024 1.984-7.68 1.984-1.312 0-2.624-0.16-3.904-0.512-33.312-8.416-67.776-17.088-101.344-17.088-155.904 0-282.72 107.136-282.72 238.816 0 131.68 126.816 238.784 282.72 238.784 152.928 0 282.144-109.344 282.144-238.784C992 120.256 950.624 52.96 875.456-3.552zM612.992 300.032c-17.568 0-35.136-17.696-35.136-35.232 0-17.664 17.568-35.104 35.136-35.104 26.4 0 43.84 17.44 43.84 35.104C656.832 282.368 639.392 300.032 612.992 300.032zM806.016 300.032c-17.312 0-34.88-17.696-34.88-35.232 0-17.664 17.568-35.104 34.88-35.104 26.304 0 44.064 17.44 44.064 35.104C850.08 282.368 832.352 300.032 806.016 300.032z"  horiz-adv-x="1024" />

    
    <glyph glyph-name="huilvxiaojianpan" unicode="&#58982;" d="M889.738645 10.808552 134.342196 10.808552c-37.021172 0-67.140143 29.256324-67.140143 65.216327L67.202053 529.349525c0 35.966143 30.119995 65.22963 67.140143 65.22963l755.395426 0c37.020148 0 67.13912-29.262464 67.13912-65.22963l0-453.323623C956.877765 40.064876 926.75777 10.808552 889.738645 10.808552zM134.342196 568.976034c-22.491247 0-40.779775-17.783015-40.779775-39.626509l0-453.323623c0-21.836331 18.288528-39.607066 40.779775-39.607066l755.395426 0c22.490224 0 40.778752 17.770735 40.778752 39.607066L930.516374 529.349525c0 21.843494-18.288528 39.626509-40.778752 39.626509L134.342196 568.976034zM160.573627 475.901219l98.848309 0 0-96.008634-98.848309 0 0 96.008634ZM311.580876 475.901219l98.849332 0 0-96.008634-98.849332 0 0 96.008634ZM462.615755 475.901219l98.848309 0 0-96.008634-98.848309 0 0 96.008634ZM613.64961 475.901219l98.849332 0 0-96.008634-98.849332 0 0 96.008634ZM764.651742 475.901219l98.854449 0 0-96.008634-98.854449 0 0 96.008634ZM236.075205 340.419572l98.854449 0 0-96.001471-98.854449 0 0 96.001471ZM387.094734 340.419572l98.855472 0 0-96.001471-98.855472 0 0 96.001471ZM538.116309 340.419572l98.855472 0 0-96.001471-98.855472 0 0 96.001471ZM689.150164 340.419572l98.855472 0 0-96.001471-98.855472 0 0 96.001471ZM269.847379 204.944064l484.378919 0 0-96.013751-484.378919 0 0 96.013751Z"  horiz-adv-x="1024" />

    
    <glyph glyph-name="jikediancanicon25" unicode="&#59271;" d="M511.328-99.712c-4.416 0-8.864 1.024-12.928 3.04C480.64-87.776 63.328 124.512 63.328 443.456c0 141.952 115.52 257.44 257.504 257.44 73.248 0 142.048-30.944 190.496-84.32 48.448 53.376 117.248 84.32 190.496 84.32 141.984 0 257.504-115.488 257.504-257.44 0-318.944-417.312-531.232-435.072-540.096C520.192-98.688 515.776-99.712 511.328-99.712L511.328-99.712zM320.832 643.104c-110.112 0-199.712-89.568-199.712-199.648 0-254.016 321.152-443.712 390.208-481.536 69.024 37.824 390.208 227.52 390.208 481.536 0 110.08-89.6 199.648-199.712 199.648-67.008 0-129.216-33.408-166.4-89.408-10.72-16.096-37.44-16.096-48.16 0C450.08 609.696 387.84 643.104 320.832 643.104L320.832 643.104zM320.832 643.104"  horiz-adv-x="1024" />

    
    <glyph glyph-name="svg26" unicode="&#59455;" d="M660.192 212.32l-89.984 89.984 90.112 90.112c14.208 14.208 14.176 37.248 0 51.456-14.208 14.208-37.184 14.24-51.456 0l-90.112-90.112L428.8 443.744c-14.208 14.208-37.312 14.176-51.488 0-14.208-14.208-14.24-37.248 0-51.488l89.984-89.984-90.112-90.112c-14.176-14.176-14.24-37.28-0.032-51.488 14.176-14.176 37.248-14.208 51.488 0.032l90.048 90.048 89.984-89.984c14.144-14.144 37.248-14.24 51.52 0.032C674.368 175.04 674.4 198.08 660.192 212.32L660.192 212.32 660.192 212.32zM840.128 624.16c-177.216 177.216-465.696 177.28-642.976 0-177.28-177.28-177.216-465.76 0-642.976 177.28-177.28 465.696-177.344 643.008-0.032C1017.44 158.432 1017.44 446.848 840.128 624.16L840.128 624.16 840.128 624.16zM237.376 21.376C82.24 176.512 82.272 428.832 237.344 583.936c155.168 155.168 407.456 155.136 562.592 0.032 155.136-155.136 155.168-407.456 0-562.624C644.896-133.76 392.48-133.76 237.376 21.376L237.376 21.376 237.376 21.376zM237.376 21.376"  horiz-adv-x="1024" />

    
    <glyph glyph-name="feiji2" unicode="&#59002;" d="M806.739641 715.554758 624.595228 533.267894 105.520386 634.107747 19.882506 546.833218 485.725749 374.162011 274.435984 139.16065 56.719707 181.982381 16.516129 140.749039 231.580586-5.840326 351.37356-199.318916 391.738669-158.231412 363.192333 49.246646 589.039068 262.846109 754.28205-199.187679 839.964801-111.912027 750.800133 402.996629 934.112289 586.011524C1015.39329 668.930287 1022.824894 734.495521 986.525012 771.198125 950.664856 807.78406 888.341461 798.167279 806.739641 715.554758Z"  horiz-adv-x="1024" />

    
    <glyph glyph-name="shuju" unicode="&#59053;" d="M420.096 805.76l180.032 0 0-663.552-180.032 0 0 663.552ZM180.224 498.368l179.968 0 0-356.16-179.968 0 0 356.16ZM660.032 617.344l180.032 0 0-475.2-180.032 0 0 475.2ZM64 79.36l896 0 0-117.12-896 0 0 117.12ZM485.76 736.384l114.368 0 0-594.24-114.368 0 0 594.24ZM245.824 430.848l114.368 0 0-288.704-114.368 0 0 288.704ZM725.696 554.56l114.368 0 0-412.352-114.368 0 0 412.352ZM123.072 20.352l836.928 0 0-58.112-836.928 0 0 58.112Z"  horiz-adv-x="1024" />

    
    <glyph glyph-name="zhinanzhen" unicode="&#59046;" d="M482.56 492.8l-286.08-241.152 363.904 0L854.208 492.8 482.56 492.8zM520.448 335.488c-20.416 0-36.928 16.512-36.928 36.928s16.512 36.992 36.928 36.992S557.44 392.832 557.44 372.416 540.864 335.488 520.448 335.488zM512 832C264.576 832 64 631.424 64 384c0-247.36 200.576-448 448-448s448 200.64 448 448C960 631.424 759.424 832 512 832zM512.896 16.064c-201.6 0-365.056 163.456-365.056 365.12 0 201.6 163.456 365.056 365.056 365.056s365.056-163.456 365.056-365.056C877.952 179.52 714.496 16.064 512.896 16.064z"  horiz-adv-x="1024" />

    
    <glyph glyph-name="guanbi1" unicode="&#58885;" d="M692.996096 480.974592c-12.386304 12.388352-32.453632 12.388352-44.841984 0L512.019456 344.841984 375.886848 480.974592c-12.386304 12.388352-32.454656 12.388352-44.841984 0-12.386304-12.386304-12.386304-32.454656 0-44.841984l136.132608-136.133632L331.04384 163.866368c-12.386304-12.3904-12.386304-32.45568 0-44.84096 6.1952-6.196224 14.307328-9.290752 22.42048-9.290752 8.114176 0 16.228352 3.094528 22.42048 9.290752L512.018432 255.15904l136.133632-136.133632c6.194176-6.196224 14.308352-9.290752 22.421504-9.290752 8.114176 0 16.226304 3.094528 22.42048 9.290752 12.387328 12.38528 12.387328 32.452608 0 44.84096L556.859392 299.998976l136.133632 136.132608c12.386304 12.387328 12.386304 32.454656 0 44.841984L692.996096 480.974592 692.996096 480.974592zM512.02048 812C229.79072 812 0 582.351616 0 299.980544S229.752832-212 512.02048-212c282.33728 0 512.018432 229.608448 512.018432 511.980544S794.390528 812 512.02048 812zM512.02048-147.903744c-247.038976 0-447.956992 200.950784-447.956992 447.9232 0 247.109632 200.918016 447.988736 447.956992 447.988736 247.037952 0 447.993856-200.879104 447.993856-447.988736C960.04608 53.04704 759.058432-147.903744 512.02048-147.903744zM1686.2208 91.397888"  horiz-adv-x="1687" />

    
    <glyph glyph-name="tixing" unicode="&#58933;" d="M946.758206 44.096c-13.12 17.856-27.744 39.264-43.936 64.064-15.712 23.808-30.688 50.624-44.768 80.096-13.632 28-25.824 58.912-36.16 91.904-9.376 30.336-14.08 61.824-14.08 93.44 0 38.464-5.44 74.016-16.288 105.568-10.528 31.328-24.992 59.84-43.072 85.024-18.208 24.96-40.064 46.304-64.896 63.328-22.56 15.616-47.328 27.776-77.056 37.824 6.112 13.12 9.728 27.648 9.728 43.104C616.262206 765.568 569.830206 812 512.678206 812c-57.152 0-103.616-46.432-103.616-103.552 0-15.328 3.552-29.824 9.568-42.88-2.656-0.672-5.824-1.184-8.192-1.824-25.344-8.768-50.24-21.664-74.56-38.688C311.718206 607.584 290.694206 586.752 273.222206 563.392c-18.368-24.544-33.12-52.768-43.776-83.808-11.328-32.128-16.992-68.192-16.992-107.104 0-32.704-4.736-64.48-14.016-94.112-10.176-31.84-22.208-62.272-35.776-90.56-12.992-27.2-27.424-53.632-44.096-80.544-16.544-26.56-30.752-50.496-42.048-70.464-20.416-31.712-12.384-58.208-5.76-70.016 11.264-19.584 30.112-32.64 53.248-32.64l772.224 0c10.592 0 21.088 5.152 30.176 10.528 9.44 5.152 17.504 13.92 23.168 22.688 6.464 9.728 10.176 21.472 10.816 33.984C961.382206 16.16 956.646206 30.976 946.758206 44.096L946.758206 44.096zM512.742206 739.488c17.056 0 30.976-13.856 30.976-30.976 0-17.12-13.952-30.976-30.976-30.976S481.766206 691.488 481.766206 708.544C481.766206 725.568 495.622206 739.488 512.742206 739.488L512.742206 739.488zM145.478206 6.816c10.24 0 21.76 39.104 34.784 60.064 18.144 29.248 33.76 58.976 47.84 88.576 14.944 31.104 28.224 65.216 39.552 100.48 11.552 36.928 17.408 76.256 17.408 116.288 0 30.72 4.352 58.752 12.992 83.424 8.256 24.16 19.456 45.696 33.344 64.288 13.056 17.536 28.896 33.248 46.528 45.984 18.496 12.992 36.96 22.56 54.432 28.672 7.968 2.304 32.672 5.088 76.032 5.088 40.64 0 72.64-2.304 74.912-2.432 21.088-6.976 40.8-16.736 58.976-29.408 18.08-12.48 34.048-28.064 47.264-46.208 13.728-19.072 24.928-41.12 33.12-65.664 8.192-24.16 12.416-51.872 12.416-82.336 0-38.912 5.824-77.536 17.344-114.912 11.424-36.64 24.992-71.04 40.128-102.016 15.488-32.128 32.096-64.192 49.408-90.56 13.952-21.248 26.624-59.328 38.848-59.328L145.478206 6.816 145.478206 6.816zM331.270206-138.304l363.008 0 0-72.544L331.270206-210.848 331.270206-138.304z"  horiz-adv-x="1024" />

    
    <glyph glyph-name="weibiaoti1" unicode="&#58894;" d="M334.518 283.732h75.629v75.629h-75.629v-75.629zM448.034 472.878h-75.629v-75.629h75.629v75.629zM334.518 472.878h-75.629v-75.629h75.629v75.629zM448.034 283.732h75.629v75.629h-75.629v-75.629zM561.412 472.878h-75.629v-75.629h75.629v75.629zM674.79 472.878h-75.629v-75.629h75.629v75.629zM788.303 472.878h-75.629v-75.629h75.629v75.629zM561.412 283.732h75.629v75.629h-75.629v-75.629zM296.774 359.361h-151.262v-75.629h151.262v75.629zM221.141 472.878h-75.629v-75.629h75.629v75.629zM712.673 170.353h75.629v75.629h-75.629v-75.629zM826.048 397.246h75.629v75.629h-75.629v-75.629zM826.048 170.353h75.629v75.629h-75.629v-75.629zM920.691 586.256h-813.066c-52.212 0-94.506-42.292-94.506-94.506v-359.141c0-52.212 42.292-94.506 94.506-94.506h812.925c52.212 0 94.506 42.292 94.506 94.506v359.141c0.138 52.212-42.156 94.506-94.365 94.506zM996.181 151.479c0-52.212-42.292-94.506-94.506-94.506h-775.042c-52.212 0-94.506 42.292-94.506 94.506v321.394c0 52.212 42.292 94.506 94.506 94.506h775.178c52.212 0 94.506-42.292 94.506-94.506v-321.394zM277.898 170.353h75.629v75.629h-75.629v-75.629zM391.274 170.353h283.651v75.629h-283.651v-75.629zM750.419 359.361h-75.629v-75.629h75.629v75.629zM145.511 170.353h75.629v75.629h-75.629v-75.629zM788.303 283.732h113.377v75.629h-113.377v-75.629z"  horiz-adv-x="1024" />

    
    <glyph glyph-name="shouji" unicode="&#58980;" d="M910.025884 639.536842C910.025884 733.857307 839.694948 812 752.109627 812L271.890372 812C184.305051 812 113.974116 733.857307 113.974116 639.536842L113.974116-39.536842C113.974116-133.857307 184.305051-212 271.890372-212L752.109627-212C839.694948-212 910.025884-133.857307 910.025884-39.536842L910.025884 639.536842ZM856.131147-39.536842C856.131147-105.283746 808.590085-158.105263 752.109627-158.105263L271.890372-158.105263C215.409916-158.105263 167.868853-105.283746 167.868853-39.536842L167.868853 639.536842C167.868853 705.283746 215.409916 758.105263 271.890372 758.105263L752.109627 758.105263C808.590085 758.105263 856.131147 705.283746 856.131147 639.536842L856.131147-39.536842ZM187.633528 3.578947 836.366471 3.578947 862.315789 3.578947 862.315789 57.473684 836.366471 57.473684 187.633528 57.473684 161.684211 57.473684 161.684211 3.578947 187.633528 3.578947 187.633528 3.578947ZM437.146198-104.210526 586.853802-104.210526 592.842105-104.210526 592.842105-50.315789 586.853802-50.315789 437.146198-50.315789 431.157895-50.315789 431.157895-104.210526 437.146198-104.210526 437.146198-104.210526Z"  horiz-adv-x="1024" />

    
    <glyph glyph-name="zhengguiicon41" unicode="&#58923;" d="M866.5856-58.4 204.8-58.4c-14.1568 0-25.6 11.4432-25.6 25.6s11.4432 25.6 25.6 25.6l661.7856 0c14.1568 0 25.6-11.4432 25.6-25.6S880.7168-58.4 866.5856-58.4zM409.6 18.4 204.8 18.4c-14.1568 0-25.6 11.4432-25.6 25.6l0 204.8c0 6.784 2.688 13.312 7.5008 18.0992l332.8 332.8c10.0096 10.0096 26.1888 10.0096 36.1984 0l204.8-204.8c10.0096-10.0096 10.0096-26.1888 0-36.1984l-332.8-332.8C422.912 21.088 416.4096 18.4 409.6 18.4zM230.4 69.6l168.6016 0 307.2 307.2L537.6 545.4016l-307.2-307.2L230.4 69.6zM788.7104 397.1008c-6.784 0-13.312 2.688-18.0992 7.5008l-199.9104 199.8848c-10.0096 9.984-10.0096 26.1888 0 36.1984l27.2128 27.2384C624.7936 694.8032 661.4016 709.6 700.9536 709.6c44.2624 0 88.3968-18.7904 121.1648-51.5584l1.9968-1.9968c64.5376-64.5376 68.9664-165.12 9.9072-224.2048l-27.2128-27.2384C801.9968 399.7888 795.4944 397.1008 788.7104 397.1008zM624.9984 622.5856l163.712-163.6864 9.1136 9.1136c39.1168 39.1168 34.6624 107.2128-9.9072 151.808L785.92 621.8432C762.6752 645.0624 731.7248 658.4 700.9536 658.4c-25.8816 0-49.6128-9.472-66.816-26.6752L624.9984 622.5856zM665.6 274.4c-6.5536 0-13.1072 2.5088-18.0992 7.5008l-204.8 204.8c-10.0096 10.0096-10.0096 26.1888 0 36.1984s26.1888 10.0096 36.1984 0l204.8-204.8c10.0096-10.0096 10.0096-26.1888 0-36.1984C678.7072 276.9088 672.1536 274.4 665.6 274.4z"  horiz-adv-x="1024" />

    
    <glyph glyph-name="shezhi" unicode="&#58952;" d="M512.0015 389.045413c-49.176952 0-89.043913-39.866961-89.043913-89.043913 0-49.178952 39.866961-89.045913 89.043913-89.045913 49.177952 0 89.044913 39.866961 89.044913 89.045913C601.046413 349.178452 561.179452 389.045413 512.0015 389.045413zM512.0015 255.479543c-24.586976 0-44.521957 19.931981-44.521957 44.521957 0 24.586976 19.934981 44.521957 44.521957 44.521957 24.587976 0 44.521957-19.934981 44.521957-44.521957C556.523457 275.412524 536.589476 255.479543 512.0015 255.479543zM934.960087 433.56437l-21.866979 0c-6.384994 19.174981-14.195986 37.654963-23.139977 55.498946l15.568985 15.566985c34.774966 34.775966 34.774966 91.154911 0 125.927877l-62.961939 62.962939c-34.774966 34.772966-91.154911 34.772966-125.927877 0l-15.566985-15.568985c-17.841983 8.943991-36.325965 16.754984-55.498946 23.136977l0 21.869979C645.56737 772.136039 605.701408 812 556.523457 812l-89.043913 0c-49.176952 0-89.043913-39.863961-89.043913-89.040913l0-21.869979c-19.173981-6.384994-37.651963-14.192986-55.496946-23.136977l-15.566985 15.568985c-34.775966 34.772966-91.153911 34.772966-125.929877 0l-62.962939-62.962939c-34.771966-34.772966-34.771966-91.151911 0-125.927877l15.571985-15.568985c-8.943991-17.840983-16.754984-36.321965-23.138977-55.495946L89.043913 433.56537c-49.176952 0-89.043913-39.863961-89.043913-89.040913l0-89.043913c0-49.180952 39.866961-89.043913 89.043913-89.043913l21.867979 0c6.382994-19.173981 14.193986-37.654963 23.138977-55.498946l-15.571985-15.567985c-34.771966-34.772966-34.771966-91.153911 0-125.926877l62.962939-62.964939c34.775966-34.774966 91.153911-34.774966 125.929877 0l15.568985 15.568985c17.841983-8.942991 36.320965-16.753984 55.494946-23.135977l0-21.869979c0-49.176952 39.866961-89.040913 89.043913-89.040913l89.043913 0c49.177952 0 89.043913 39.863961 89.043913 89.040913l0 21.866979c19.172981 6.384994 37.653963 14.193986 55.498946 23.138977l15.566985-15.568985c34.772966-34.774966 91.153911-34.774966 125.927877 0l62.961939 62.964939c34.774966 34.772966 34.774966 91.153911 0 125.926877l-15.568985 15.567985c8.943991 17.841983 16.754984 36.324965 23.139977 55.498946l21.866979 0c49.176952 0 89.041913 39.862961 89.041913 89.043913l0 89.043913C1024.002 393.700408 984.137039 433.56437 934.960087 433.56437zM979.480043 255.479543c0-24.591976-19.932981-44.524957-44.520957-44.524957l-9.571991 0-45.765955 0c-9.332991-38.577962-25.109975-74.464927-45.246956-107.401895l32.765968-32.764968 6.900993-6.900993c17.385983-17.385983 17.385983-45.574955 0-62.963939l-62.962939-62.961939c-17.386983-17.388983-45.575955-17.388983-62.961939 0l-39.722961 39.719961c-32.923968-20.09098-68.790933-35.827965-107.346895-45.143956l0-45.923955 0-9.571991c0-24.586976-19.931981-44.521957-44.522957-44.521957l-89.043913 0c-24.586976 0-44.521957 19.934981-44.521957 44.521957l0 9.571991 0 45.923955c-38.553962 9.316991-74.422927 25.052976-107.346895 45.140956l-39.719961-39.716961c-17.389983-17.388983-45.578955-17.388983-62.964939 0l-62.962939 62.961939c-17.386983 17.388983-17.386983 45.577955 0 62.963939l6.903993 6.900993 32.763968 32.764968c-20.13998 32.937968-35.913965 68.824933-45.246956 107.401895L98.615904 210.954587l-9.571991 0c-24.589976 0-44.520957 19.931981-44.520957 44.524957l0 89.043913c0 24.586976 19.930981 44.521957 44.520957 44.521957l9.571991 0 45.765955 0c9.332991 38.577962 25.106975 74.461927 45.246956 107.399895l-32.765968 32.765968-6.900993 6.900993c-17.386983 17.386983-17.386983 45.578955 0 62.964939l62.962939 62.961939c17.385983 17.385983 45.574955 17.385983 62.964939 0l6.900993-6.900993 32.818968-32.818968c32.923968 20.09098 68.791933 35.824965 107.346895 45.140956L422.956587 713.387096l0 9.571991c0 24.589976 19.934981 44.518957 44.521957 44.518957l89.043913 0c24.590976 0 44.522957-19.928981 44.522957-44.518957l0-9.571991 0-45.926955c38.555962-9.316991 74.422927-25.049976 107.346895-45.140956l32.821968 32.817968 6.900993 6.901993c17.385983 17.385983 45.574955 17.385983 62.961939 0l62.962939-62.961939c17.385983-17.385983 17.385983-45.577955 0-62.964939l-6.900993-6.900993-32.765968-32.765968c20.13698-32.937968 35.914965-68.823933 45.246956-107.399895l45.765955 0 9.571991 0c24.586976 0 44.520957-19.934981 44.520957-44.521957L979.479043 255.479543zM512.0015 522.611283c-122.94288 0-222.608783-99.666903-222.608783-222.608783 0-122.94488 99.665903-222.608783 222.608783-222.608783 122.94488 0 222.608783 99.664903 222.608783 222.608783C734.610283 422.94338 634.94638 522.611283 512.0015 522.611283zM512.0015 121.911674c-98.355904 0-178.086826 79.733922-178.086826 178.089826 0 98.354904 79.730922 178.086826 178.086826 178.086826 98.354904 0 178.088826-79.732922 178.088826-178.086826C690.090326 201.645596 610.356404 121.911674 512.0015 121.911674z"  horiz-adv-x="1025" />

    
    <glyph glyph-name="shenfengzheng3" unicode="&#59022;" d="M924.314115 643.884095 100.639606 643.884095c-19.23918 0-34.836413-16.148795-34.836413-36.07052l0-612.607372c0-19.919678 15.597233-36.06745 34.836413-36.06745l823.674509 0c19.237133 0 34.833343 16.147772 34.833343 36.06745L959.147458 607.814598C959.147458 627.735299 943.551248 643.884095 924.314115 643.884095zM897.669268 46.414491c0-16.591887-13.449313-30.040177-30.03813-30.040177L157.32156 16.374314c-16.590863 0-30.040177 13.449313-30.040177 30.040177L127.281383 556.609379c0 16.58984 13.449313 30.039153 30.040177 30.039153l710.308555 0c16.58984 0 30.03813-13.449313 30.03813-30.039153L897.668245 46.414491zM537.054117 422.511241l285.441031 0 0-55.486732-285.441031 0 0 55.486732ZM537.054117 314.612813l285.441031 0 0-55.486732-285.441031 0 0 55.486732ZM358.32755 313.19758c47.50699 0.076748 79.149665 63.240323 79.149665 97.237625 0 34.025954-0.12382 94.482885-79.149665 94.482885-79.001285 0-79.149665-60.48149-79.149665-94.482885C279.177885 376.437903 310.874795 313.121855 358.32755 313.19758zM450.356546 287.061316l-0.024559 0c-19.869536 10.125615-38.532595 18.540262-38.532595 18.540262l-38.058804-69.950142-5.640464 16.663518 10.423397 21.019733-20.846794 21.045315-20.846794-21.045315 10.447956-21.019733-6.764054-17.065677-36.980239 70.352301c0 0-58.58121-26.328645-78.949097-42.088584-20.316721-15.865339-29.29214-63.892169-29.29214-63.892169l255.063163 0L450.355523 287.061316zM195.29236 140.417445l629.614721 0 0-55.486732-629.614721 0 0 55.486732Z"  horiz-adv-x="1024" />

    
    <glyph glyph-name="jiudianxinxi" unicode="&#59064;" d="M998.4-134.4h-44.8v499.2c0 44.8-38.4 83.2-83.2 83.2h-102.4c-12.8 0-25.6-12.8-25.6-25.6s12.8-25.6 25.6-25.6h102.4c12.8 0 25.6-12.8 25.6-25.6v-499.2h-192v812.8c0 44.8-38.4 83.2-83.2 83.2h-460.8c-44.8 0-83.2-38.4-83.2-83.2v-819.2l-51.2 0c-12.8 0-25.6-12.8-25.6-25.6s12.8-25.6 25.6-25.6h966.4c12.8 0 25.6 12.8 25.6 25.6s-6.4 25.6-19.2 25.6zM134.4-134.4v819.2c0 12.8 12.8 25.6 25.6 25.6h467.2c12.8 0 25.6-12.8 25.6-25.6v-819.2l-518.4 0zM505.6 518.4h-224c-12.8 0-25.6-12.8-25.6-25.6s12.8-25.6 25.6-25.6h224c12.8 0 25.6 12.8 25.6 25.6s-12.8 25.6-25.6 25.6zM505.6 320h-224c-12.8 0-25.6-12.8-25.6-25.6 0-12.8 12.8-25.6 25.6-25.6h224c12.8 0 25.6 12.8 25.6 25.6 0 12.8-12.8 25.6-25.6 25.6zM505.6 153.6h-224c-12.8 0-25.6-12.8-25.6-25.6s6.4-32 25.6-32h224c12.8 0 25.6 12.8 25.6 25.6s-12.8 32-25.6 32z"  horiz-adv-x="1024" />

    
    <glyph glyph-name="zuji" unicode="&#58934;" d="M863.221712 168.035456c-13.201673 10.712993-30.142507 8.529257-40.736796-4.63967-10.650571-13.198603-1.89414-29.928636 11.30651-40.519856 21.4925-17.346063 57.953923-73.586972 59.359946-102.529141 2.797719-57.560974-55.508221-112.723318-107.326401-112.723318-30.485315 0-70.290903 15.519462-91.125417 37.866423-9.604752 10.3006-65.848731 96.376001-91.349521 126.021182-61.442374 71.426773-149.622716 57.509808-156.691715 58.359152C320.464197 145.028463 226.008942 271.374032 243.198439 382.096786c7.995091 51.501978 43.955094 111.477954 93.53428 141.902894 51.265594 31.403221 125.914758 51.564399 199.463867 36.375465 64.338331-13.287631 137.722688-51.208289 177.478134-96.336092 38.435381-43.654242 55.760978-106.688881 47.967478-158.291143-2.946099-19.739577-8.442276-38.249139-18.386766-55.961546-8.320503-14.765285-23.580045-33.926694-8.750291-42.212404 14.703887-8.258081 33.492812-3.072989 41.779545 11.756765 13.602809 24.218588 22.536272 50.282197 26.587542 77.389578 10.529821 69.74855-11.57564 139.834792-62.164828 197.334367-49.302893 55.963593-120.095215 93.3859-199.329814 105.297185-79.236646 11.880585-157.978011-2.978844-221.586724-41.966811-65.324798-40.031738-107.042945-100.510158-117.513414-170.254615-20.475334-135.567605 100.721982-276.828886 239.58361-294.836005 26.573215-3.446495 88.494497-3.529383 127.730103-45.402049 34.349319-36.687574 86.84595-116.41029 90.715071-118.742405 29.286-38.252209 74.81187-61.059658 123.192763-61.059658 85.652775 0 164.420747 70.199829 155.339928 155.363464C933.523871 72.310278 897.791042 140.218924 863.221712 168.035456L863.221712 168.035456zM247.95886 619.744301c-19.186991 16.33299-18.683525 31.293727-3.344165 48.693002 5.738701 6.510274 90.319052 104.09173 263.518742 76.718289 25.104771-3.967358 39.055504-15.797801 36.130895-40.9916-2.935865-25.278733-29.253254-32.836873-54.18304-27.739784-115.888404 23.210631-174.894286-42.856064-177.346127-45.648666-9.147334-10.496052-23.668049-16.762779-35.734876-17.736966C276.998243 613.039599 256.554632 612.441988 247.95886 619.744301zM200.008778 511.208353c0-35.984562-29.172413-65.154929-65.156976-65.154929-35.981493 0-65.152882 29.17139-65.152882 65.154929s29.172413 65.154929 65.152882 65.154929C170.836365 576.364305 200.008778 547.192915 200.008778 511.208353z"  horiz-adv-x="1024" />

    
    <glyph glyph-name="shezhi1" unicode="&#59018;" d="M973.056 163.424C954.464 159.584 934.528 155.904 913.408 152.48 909.44 141.632 904.992 130.944 900.16 120.448 912.64 103.136 924.16 86.432 934.56 70.56 951.2 45.216 947.744 11.648 926.304-9.76L821.76-114.304C809.408-126.656 793.024-133.056 776.512-133.056 764.384-133.056 752.16-129.6 741.44-122.56 725.568-112.192 708.896-100.672 691.552-88.16 681.088-92.992 670.464-97.408 659.648-101.376 656.16-122.816 652.416-142.88 648.512-161.312 642.208-190.88 616.128-212 585.92-212L438.08-212C407.872-212 381.792-190.88 375.488-161.312 371.552-142.88 367.84-122.816 364.352-101.376 353.6-97.408 342.976-93.024 332.576-88.224 314.944-100.928 298.112-112.48 282.304-122.72 271.648-129.664 259.52-133.056 247.488-133.056 230.976-133.056 214.592-126.656 202.24-114.304L97.696-9.76C76.352 11.584 72.832 44.96 89.28 70.304 99.52 86.144 111.072 102.944 123.776 120.576 118.976 130.976 114.592 141.568 110.624 152.352 89.184 155.84 69.12 159.584 50.688 163.488 21.12 169.792 0 195.872 0 226.08L0 373.92C0 404.128 21.12 430.208 50.688 436.512 69.12 440.448 89.184 444.16 110.624 447.648 114.592 458.432 118.976 469.024 123.776 479.424 111.072 497.056 99.52 513.856 89.28 529.696 72.832 555.04 76.352 588.416 97.696 609.792L202.24 714.304C214.592 726.656 230.976 733.056 247.488 733.056 259.52 733.056 271.648 729.664 282.304 722.72 298.112 712.48 314.944 700.928 332.576 688.224 342.976 693.024 353.6 697.408 364.352 701.376 367.84 722.816 371.552 742.88 375.488 761.312 381.792 790.88 407.872 812 438.08 812L585.92 812C616.128 812 642.208 790.88 648.512 761.312 652.416 742.88 656.16 722.816 659.648 701.376 670.4 697.408 681.024 693.024 691.424 688.224 709.056 700.928 725.856 712.48 741.696 722.72 752.352 729.664 764.48 733.056 776.512 733.056 793.024 733.056 809.408 726.656 821.76 714.304L926.304 609.792C947.648 588.416 951.168 555.04 934.72 529.696 924.48 513.856 912.928 497.056 900.224 479.424 905.056 468.96 909.44 458.336 913.408 447.488 934.528 444.096 954.464 440.448 973.056 436.576 1002.72 430.4 1024 404.224 1024 373.92L1024 226.08C1024 195.776 1002.72 169.6 973.056 163.424ZM960 373.92C931.04 379.936 898.912 385.376 864.288 390.144 855.648 424.032 842.336 455.936 824.928 485.248 846.208 513.344 865.12 540 881.056 564.512L776.512 669.056C752 653.12 725.344 634.208 697.248 612.928 667.968 630.304 636.096 643.616 602.272 652.256 597.472 687.168 592 719.392 585.92 748L438.08 748C432 719.392 426.528 687.168 421.728 652.256 387.904 643.616 356.032 630.304 326.752 612.928 298.656 634.208 272 653.12 247.488 669.056L142.944 564.512C158.88 540 177.792 513.344 199.072 485.248 181.696 455.968 168.384 424.096 159.744 390.272 124.832 385.472 92.608 380 64 373.92L64 226.08C92.608 220 124.832 214.528 159.744 209.728 168.384 175.904 181.696 144.032 199.072 114.752 177.792 86.656 158.88 60 142.944 35.488L247.488-69.056C272-53.12 298.656-34.208 326.752-12.928 356.032-30.304 387.904-43.616 421.728-52.256 426.528-87.2 432-119.392 438.08-148L585.92-148C592-119.392 597.472-87.2 602.272-52.256 636.16-43.584 668.064-30.272 697.376-12.864 725.216-33.952 751.776-52.832 776.512-69.056L881.056 35.488C864.832 60.224 845.952 86.752 824.864 114.624 842.272 143.968 855.616 175.936 864.288 209.856 898.912 214.624 931.04 220.064 960 226.08L960 373.92ZM512 108C405.952 108 320 193.952 320 300 320 406.048 405.952 492 512 492 618.048 492 704 406.048 704 300 704 193.952 618.048 108 512 108ZM512 428C441.312 428 384 370.688 384 300 384 229.312 441.312 172 512 172 582.688 172 640 229.312 640 300 640 370.688 582.688 428 512 428Z"  horiz-adv-x="1024" />

    
    <glyph glyph-name="5" unicode="&#58886;" d="M959.874005-148.006524 64.04106-148.006524 64.04106 747.841771l895.832945 0L959.874005-148.006524zM903.935995-92.068514 903.935995 691.890458 119.97907 691.890458l0-783.958972L903.935995-92.068514M427.940001 495.873086 427.940001 551.907287 819.945069 551.907287 819.945069 495.873086 427.940001 495.873086ZM343.951121 551.907287 343.951121 495.873086 203.96795 495.873086 203.96795 551.907287 343.951121 551.907287ZM427.940001 271.941967 427.940001 327.921933 819.945069 327.921933 819.945069 271.941967 427.940001 271.941967ZM343.951121 327.921933 343.951121 271.941967 203.96795 271.941967 203.96795 327.921933 343.951121 327.921933ZM427.940001 47.969916 427.940001 103.937602 819.945069 103.937602 819.945069 47.969916 427.940001 47.969916ZM343.951121 103.937602 343.951121 47.969916 203.96795 47.969916 203.96795 103.937602 343.951121 103.937602Z"  horiz-adv-x="1024" />

    
    <glyph glyph-name="good" unicode="&#58966;" d="M1201.828 340.955l-0.335-6.405c-0.889-22.676-8.823-47.189-26.167-66.649 11.645-21.571 16.058-47.499 11.949-72.687-6.678-40.603-22.493-67.232-40.972-84.7 7.998-19.612 11.491-47.008-0.029-83.505-6.928-22.247-17.527-56.415-50.41-79.031 5.21-20.102 3.617-39.899-0.705-53.902-5.761-18.601-12.811-32.359-13.147-32.972-21.911-39.408-58.681-59.052-109.766-59.052h-167.499c-85.25 0-167.439 17.527-183.036 21.084-72.624 16.669-106.609 24.818-124.26 29.171-0.581 0.183-0.857 0.244-1.41 0.369-2.941 0.765-5.301 1.38-7.323 1.901-0.429 0.062-1.074 0.244-1.438 0.369-14.772-30.859-45.262-52.891-81.755-52.891h-91.931c-50.685 0-91.931 41.217-91.931 91.902v490.084c0 50.685 41.247 91.902 91.931 91.902h91.931c22.89 0 45.169-10.633 61.287-24.517l-1.625 1.38c3.156 1.41 24.73 12.042 32.27 15.996 102.841 54.023 121.869 160.574 122.574 222.259 0.614 50.286 41.889 91.165 91.931 91.165 70.88 0 150.95-96.805 150.95-206.691 0-45.998-1.41-71.89-7.662-100.633 131.707-3.494 221.831-3.372 260.103-13.422 60.124-17.163 86.907-66.496 86.907-105.201 0-8.823-0.183-11.308-0.429-15.324zM436.163 384.038c0 16.946-13.728 30.642-30.642 30.642h-91.931c-16.946 0-30.642-13.697-30.642-30.642v-490.084c0-16.916 13.697-30.614 30.642-30.614h91.931c16.916 0 30.642 13.697 30.642 30.614v490.084zM1104.565 403.192c-27.056 7.079-24.882 11.491-331.318 11.491 25.465 75.658 28.377 88.223 28.377 160.849 0 80.441-57.243 145.437-89.664 145.437-19.153 0-30.462-15.965-30.642-30.614-1.258-104.345-43.883-231.422-183.862-289.338-1.868-0.797-4.444-1.563-6.314-2.329-15.168-4.569-24.332-17.561-24.332-31.9l0.244-423.068c0-22.617 25.892-26.966 25.892-26.966 7.998-2.268 14.708-4.533 142.002-33.862 2.174-0.492 85.618-19.552 169.796-19.552h167.499c31.595 0 46.519 10.052 55.773 26.721 0.215 0.429 4.72 9.653 8.579 22.064 3.494 11.367 1.901 43.086-31.625 43.086-26.815 0-48.048 0-48.048 0-8.459 0-15.324 6.895-15.324 15.324 0 8.487 6.863 15.324 15.324 15.324 0 0 27.948 0 50.009 0 65.148 0 71.123 28.653 80.868 59.57 7.476 23.503 11.981 62.943-39.714 62.943-23.932 0-60.336 0-60.336 0-8.459 0-15.324 6.863-15.324 15.324 0 8.487 6.863 15.291 15.324 15.291 0 0 21.050 0 72.811 0 51.726 0 62.483 43.207 66.22 66.037 3.003 18.385-3.034 56.508-48.999 56.508-45.998 0-59.388 0-59.388 0-8.487 0-15.324 6.863-15.324 15.324 0 8.459 6.833 15.324 15.324 15.324 0 0 15.324 0 61.287 0 53.627 0 59.969 29.724 60.583 44.863 0.399 10.297 0.705 8.765 0.705 19.245 0 9.591-2.88 37.355-36.405 46.914zM359.554-106.048c-25.374 0-45.967 20.592-45.967 45.934 0 25.374 20.592 45.967 45.967 45.967 25.374 0 45.967-20.592 45.967-45.967 0-25.341-20.592-45.934-45.967-45.934zM359.554-44.789c-8.459 0-15.324-6.863-15.324-15.324 0-8.428 6.863-15.291 15.324-15.291 8.459 0 15.324 6.863 15.324 15.291 0 8.459-6.863 15.324-15.324 15.324z"  horiz-adv-x="1408" />

    
    <glyph glyph-name="iconfontmove" unicode="&#59078;" d="M863.744 352 163.424 352c-17.664 0-32 14.336-32 32s14.336 32 32 32l700.32 0c17.696 0 32-14.336 32-32S881.44 352 863.744 352z"  horiz-adv-x="1024" />

    
    <glyph glyph-name="bianji" unicode="&#59001;" d="M945.700571 649.330286c20.004571 19.748571 20.004571 51.748571 0 71.460571L873.325714 792.288C853.357714 812 820.918857 812 800.914286 792.288l-108.580571-107.227429 144.786286-142.957714L945.700571 649.330286zM800.914286 506.372571l-144.786286 142.957714L221.769143 220.457143l144.786286-142.921143L800.914286 506.372571zM185.307429 184.8l-48.201143-190.573714 192.987429 47.579429L185.307429 184.8zM1045.723429-110.258286 51.419429-110.258286C23.003429-110.258286 0-133.042286 0-161.092571 0-189.216 23.003429-212 51.419429-212l994.304 0C1074.102857-212 1097.142857-189.216 1097.142857-161.092571 1097.142857-133.042286 1074.102857-110.258286 1045.723429-110.258286z"  horiz-adv-x="1098" />

    
    <glyph glyph-name="tuichu" unicode="&#58954;" d="M512 385.786829 512 385.786829c-15.071254 0-27.288506 12.217253-27.288506 27.288506l0 327.457983c0 15.071254 12.217253 27.288506 27.288506 27.288506l0 0c15.071254 0 27.288506-12.217253 27.288506-27.288506l0-327.457983C539.287483 398.005105 527.07023 385.786829 512 385.786829zM648.440485 703.308509 648.440485 703.308509c0-10.618848 6.336312-19.97903 15.918551-24.555256 134.13293-64.065108 222.033909-209.884195 198.611453-372.614439-22.644743-157.327188-152.412248-282.476513-310.379003-300.114219C338.895477-17.835835 157.25351 149.51873 157.25351 358.499345c0 141.097552 82.83459 263.160585 202.40178 320.261071 9.573029 4.571109 15.903202 13.923104 15.903202 24.531719l0 0c0 19.892049-20.838607 33.238009-38.809911 24.708751-139.564639-66.237587-235.814774-208.795397-234.047524-373.971343 2.290159-214.122729 175.73135-394.380162 389.632021-404.391167 235.005338-10.997472 428.989401 176.276772 428.989401 408.861992 0 163.355485-95.862301 304.000736-234.277768 369.598756C669.144016 736.58131 648.440485 723.11767 648.440485 703.308509z"  horiz-adv-x="1024" />

    
    <glyph glyph-name="jingshi" unicode="&#58963;" d="M710.747535 708.080109c-79.994317 138.535613-210.821388 138.535613-290.888427 0l-385.718054-668.170717c-79.994317-138.535613-14.544421-251.909378 145.444214-251.909378l771.436109 0c159.988635 0 225.438531 113.373764 145.444214 251.909378L710.747535 708.080109zM565.303322-55.720178c-21.598466 0-39.051771 17.526028-39.051771 39.124493 0 21.525744 17.453306 39.051771 39.051771 39.051771 21.525744 0 39.051771-17.526028 39.051771-39.051771C604.355093-38.194151 586.901787-55.720178 565.303322-55.720178zM565.303322 100.559629c-21.598466 0-21.598466 0-21.598466 0-9.599318 21.453022-17.453306 109.301327-17.453306 195.331579 0 85.95753 7.853988 173.878557 17.453306 195.331579 0 0 0 0 21.598466 0 21.525744 0 21.525744 0 21.525744 0 9.599318-21.453022 17.453306-109.374049 17.453306-195.331579 0-86.030252-7.853988-173.878557-17.453306-195.331579C586.901787 100.559629 586.901787 100.559629 565.303322 100.559629z"  horiz-adv-x="1131" />

    
    <glyph glyph-name="juxing2" unicode="&#58887;" d="M901.327943 97.833143C833.9132 97.833143 779.261582 152.513776 779.261582 219.965998 779.261582 221.294659 779.319613 222.608812 779.361927 223.927802L710.182083 239.556194C695.709469 193.060307 665.263906 153.612732 625.244486 127.671802L683.340468 26.99217C694.583915 30.409936 706.508014 32.264501 718.867344 32.264501 786.283296 32.264501 840.934914-22.416132 840.934914-89.868354 840.934914-157.319367 786.283296-212 718.867344-212 651.451391-212 596.800982-157.319367 596.800982-89.868354 596.800982-49.510423 616.375462-13.738125 646.533289 8.499721L588.633162 108.840841C565.291523 99.667155 539.874078 94.626947 513.279093 94.626947 454.802286 94.626947 402.014904 118.986541 364.485969 158.112529L229.698796 51.8148C239.278697 34.382621 244.738418 14.364449 244.738418-6.934026 244.738418-74.385039 190.0868-129.065672 122.670848-129.065672 55.256104-129.065672 0.604486-74.385039 0.604486-6.934026 0.604486 60.518196 55.256104 115.198829 122.670848 115.198829 154.440236 115.198829 183.367329 103.048652 205.084109 83.148959L339.79149 189.383821C319.080576 221.555797 307.059759 259.858475 307.059759 300.972014 307.059759 350.478243 324.489521 395.905398 353.535093 431.463707L194.445148 590.640699C174.414885 576.241832 149.866692 567.735499 123.320066 567.735499 55.904113 567.735499 1.252496 622.416132 1.252496 689.868354 1.252496 757.319367 55.904113 812 123.320066 812 190.73481 812 245.386427 757.319367 245.386427 689.868354 245.386427 663.22622 236.835362 638.597025 222.365166 618.522031L381.289483 459.509459C417.054527 489.354163 463.068033 507.31829 513.279093 507.31829 531.329058 507.31829 548.834985 504.989809 565.520019 500.631462L597.688368 582.175471C559.319197 602.760652 533.217473 643.258824 533.217473 689.868354 533.217473 757.319367 587.867882 812 655.283835 812 722.699787 812 777.351405 757.319367 777.351405 689.868354 777.351405 622.416132 722.699787 567.735499 655.283835 567.735499 647.626201 567.735499 640.143868 568.475391 632.876732 569.824604L600.579022 487.952963C670.827599 455.058021 719.498427 383.708071 719.498427 300.972014 719.498427 293.846328 719.124855 286.808897 718.420024 279.869393L787.570852 264.248255C805.298021 309.801143 849.529502 342.097643 901.327943 342.097643 968.743896 342.097643 1023.395514 287.41822 1023.395514 219.965998 1023.395514 152.513776 968.743896 97.833143 901.327943 97.833143ZM636.642682-91.147447C636.642682-136.583065 673.455906-173.415632 718.867344-173.415632 764.278782-173.415632 801.092005-136.583065 801.092005-91.147447 801.092005-45.71183 764.278782-8.878054 718.867344-8.878054 673.455906-8.878054 636.642682-45.71183 636.642682-91.147447ZM122.670848 74.055065C77.25941 74.055065 40.446187 37.215244 40.446187-8.230045 40.446187-53.675334 77.25941-90.516364 122.670848-90.516364 168.083495-90.516364 204.896718-53.675334 204.896718-8.230045 204.896718 37.215244 168.083495 74.055065 122.670848 74.055065ZM123.320066 770.857445C77.907419 770.857445 41.094196 734.016416 41.094196 688.571126 41.094196 643.125837 77.907419 606.286017 123.320066 606.286017 168.731504 606.286017 205.544727 643.125837 205.544727 688.571126 205.544727 734.016416 168.731504 770.857445 123.320066 770.857445ZM655.266909 606.286017C700.688019 606.286017 737.509705 643.125837 737.509705 688.571126 737.509705 734.016416 700.688019 770.857445 655.266909 770.857445 609.845799 770.857445 573.025322 734.016416 573.025322 688.571126 573.025322 643.125837 609.845799 606.286017 655.266909 606.286017ZM513.279093 462.320321C422.804401 462.320321 349.459646 388.928416 349.459646 298.396902 349.459646 207.864179 422.804401 134.473483 513.279093 134.473483 603.753785 134.473483 677.098541 207.864179 677.098541 298.396902 677.098541 388.928416 603.753785 462.320321 513.279093 462.320321ZM901.327943 300.955089C855.916505 300.955089 819.103282 264.122522 819.103282 218.686904 819.103282 173.251287 855.916505 136.417511 901.327943 136.417511 946.74059 136.417511 983.553813 173.251287 983.553813 218.686904 983.553813 264.122522 946.74059 300.955089 901.327943 300.955089Z"  horiz-adv-x="1024" />

    
    <glyph glyph-name="gengduo" unicode="&#58932;" d="M390.095238 812l243.809524 0 0-243.809524-243.809524 0 0 243.809524ZM390.095238 421.904762l243.809524 0 0-243.809524-243.809524 0 0 243.809524ZM390.095238 31.809524l243.809524 0 0-243.809524-243.809524 0 0 243.809524Z"  horiz-adv-x="1024" />

    
    <glyph glyph-name="xiangzuojiantou" unicode="&#59029;" d="M668.292626 46.613012 707.914018 85.111838 422.60704 362.331627l285.306978 277.223882-39.621393 38.497802L343.369372 362.331627 668.292626 46.613012zM668.292626 46.613012"  horiz-adv-x="1024" />

    
    <glyph glyph-name="huji" unicode="&#58882;" d="M511.916601 896c-282.652522 0-511.895623-229.244124-511.895623-511.944741 0-282.783505 229.243101-512.027629 511.895623-512.027629 282.750759 0 511.99386 229.243101 511.99386 512.027629C1023.916601 666.755876 794.666336 896 511.916601 896L511.916601 896zM511.916601-91.387128c-262.558881 0-475.362568 212.858946-475.362568 475.442386 0 262.526135 212.803687 475.361545 475.362568 475.361545 262.555811 0 475.40964-212.83541 475.40964-475.361545C987.332381 121.471818 774.472412-91.387128 511.916601-91.387128L511.916601-91.387128zM511.916601-91.387128M810.950208 416.567743c-4.611018-5.951549-13.138228-6.979972-19.066241-2.343371l-33.853016 25.656333 0-313.796846c0-7.525394-6.101975-13.602809-13.626345-13.602809L571.66438 112.48105c-3.659343 0-7.060813 1.440815-9.637498 3.965312-2.524496 2.550079-8.220219 6.028297-8.220219 9.637498L553.806663 275.25325 472.21846 275.25325l0-149.169391c0-7.525394-6.136767-13.602809-13.660114-13.602809L281.844621 112.48105c-7.518231 0-13.57825 6.077416-13.57825 13.602809l0 315.188542-36.271088-27.097148c-2.474354-1.911536-5.41329-2.838651-8.29492-2.838651-4.047176 0-8.089235 1.830695-10.794857 5.282307-4.561899 5.951549-3.477194 14.4542 2.442632 19.089777l290.051025 217.006406c4.942569 3.815909 11.796674 3.76065 16.715707-0.073678l286.566668-217.006406C814.560432 431.022966 815.587831 422.470173 810.950208 416.567743L810.950208 416.567743zM513.694083 624.684688 295.040155 461.32204c0.124843-0.700965 0.437975-1.290389 0.437975-1.960655l0-319.701323 149.501966 0L444.980095 288.881642c0 7.54893 6.109138 13.608949 13.57825 13.608949l108.901269 0c3.559059 0 7.036253-1.423419 9.585309-3.973498 2.550079-2.549056 3.991917-6.027274 3.991917-9.635451l-0.050142-149.220556 149.839657 0L730.826356 454.418816c0 1.828648 0.388856 3.602038 1.027399 5.200442L513.694083 624.684688 513.694083 624.684688zM513.694083 624.684688"  horiz-adv-x="1024" />

    
    <glyph glyph-name="guanbi4" unicode="&#59026;" d="M557.312 382.752l265.28 263.904c12.544 12.48 12.608 32.704 0.128 45.248-12.512 12.576-32.704 12.608-45.248 0.128l-265.344-263.936-263.04 263.84C236.64 704.416 216.384 704.48 203.84 692 191.328 679.52 191.296 659.264 203.776 646.72l262.976-263.776L201.6 119.2c-12.544-12.48-12.608-32.704-0.128-45.248 6.24-6.272 14.464-9.44 22.688-9.44 8.16 0 16.32 3.104 22.56 9.312l265.216 263.808 265.44-266.24c6.24-6.272 14.432-9.408 22.656-9.408 8.192 0 16.352 3.136 22.592 9.344 12.512 12.48 12.544 32.704 0.064 45.248L557.312 382.752z"  horiz-adv-x="1024" />

    
    <glyph glyph-name="yingxiangpinjie" unicode="&#59727;" d="M753.068939 521.754411c0 38.041408-30.839379 68.880787-68.88181 68.880787-38.035268 0-68.874647-30.839379-68.874647-68.880787 0-38.034245 30.839379-68.873624 68.874647-68.873624C722.22956 452.880787 753.068939 483.720166 753.068939 521.754411zM167.617044 177.371966 445.275831 177.371966 445.275831 489.108896 408.685471 556.193781ZM856.381933 177.371966 649.753899 384 578.723146 298.764734 578.723146 244.452757 578.723146 177.371966 615.312482 177.371966ZM64.303027 74.056925 445.275831 74.056925 445.275831 142.938736 133.177674 142.938736 133.177674 625.067404 445.275831 625.067404 445.275831 693.949214 64.303027 693.949214ZM578.723146 693.949214 578.723146 625.067404 890.815163 625.067404 890.815163 142.938736 578.723146 142.938736 578.723146 74.056925 959.69595 74.056925 959.69595 693.949214ZM529.216615 590.635197 494.782362 590.635197 494.782362 521.754411 460.341968 521.754411 460.341968 487.31504 494.782362 487.31504 494.782362 418.82004 529.216615 418.82004 529.216615 487.31504 563.657009 487.31504 563.657009 521.754411 529.216615 521.754411ZM529.216615 831.696462 494.782362 831.696462 494.782362 762.821815 460.341968 762.821815 460.341968 728.390631 494.782362 728.390631 494.782362 659.507798 529.216615 659.507798 529.216615 728.390631 563.657009 728.390631 563.657009 762.821815 529.216615 762.821815ZM529.216615 349.93209 494.782362 349.93209 494.782362 280.694169 460.341968 280.694169 460.341968 246.253776 494.782362 246.253776 494.782362 177.371966 529.216615 177.371966 529.216615 246.253776 563.657009 246.253776 563.657009 280.694169 529.216615 280.694169ZM529.216615 108.498342 494.782362 108.498342 494.782362 39.617555 460.341968 39.617555 460.341968 5.183302 494.782362 5.183302 494.782362-63.695438 529.216615-63.695438 529.216615 5.183302 563.657009 5.183302 563.657009 39.617555 529.216615 39.617555Z"  horiz-adv-x="1024" />

    
    <glyph glyph-name="ivrbaojingdianhua" unicode="&#58974;" d="M826.4 448 581.6 448c-20.8 0-37.6-16.8-37.6-37.6L544 352l320 0 0 58.4C864 431.2 847.2 448 826.4 448zM832 384 576 384l0 26.4c0 3 2.6 5.6 5.6 5.6l244.8 0c3 0 5.6-2.6 5.6-5.6L832 384zM576 464l256 0 0 120c0 63.6-59.8 119.4-128 119.4s-128-55.8-128-119.4L576 464zM608 584c0 45.8 45.8 87.4 96 87.4s96-41.6 96-87.4l0-88-192 0L608 584zM704 655.4c-6.6 0-13.4-0.8-20-2.6-8.6-2.2-13.6-11-11.4-19.6 1.8-7.2 8.4-12 15.4-12 1.4 0 2.8 0.2 4 0.6 4 1 8 1.6 12 1.6 8.8 0 16 7.2 16 16S712.8 655.4 704 655.4zM644.4 629.2c-13-13.8-20.2-31.2-20.2-48.8L624.2 552c0-8.8 7.2-16 16-16s16 7.2 16 16l0 28.4c0 9.4 4 19 11.4 26.8 6 6.4 5.8 16.6-0.6 22.6C660.6 636 650.4 635.8 644.4 629.2zM704 744c8.8 0 16 7.2 16 16L720 816c0 8.8-7.2 16-16 16s-16-7.2-16-16l0-56C688 751.2 695.2 744 704 744zM562.6 694.8c3.2-3.2 7.2-4.6 11.4-4.6 4 0 8.2 1.6 11.4 4.6 6.2 6.2 6.2 16.4 0 22.6l-39.6 39.6c-6.2 6.2-16.4 6.2-22.6 0-6.2-6.2-6.2-16.4 0-22.6L562.6 694.8zM464 560l56 0c8.8 0 16 7.2 16 16s-7.2 16-16 16l-56 0c-8.8 0-16-7.2-16-16S455.2 560 464 560zM944 592l-56 0c-8.8 0-16-7.2-16-16s7.2-16 16-16l56 0c8.8 0 16 7.2 16 16S952.8 592 944 592zM834.2 690.2c4 0 8.2 1.6 11.4 4.6l39.6 39.6c6.2 6.2 6.2 16.4 0 22.6-6.2 6.2-16.4 6.2-22.6 0l-39.6-39.6c-6.2-6.2-6.2-16.4 0-22.6C826 691.6 830 690.2 834.2 690.2zM783 187.4l-2.8 6L552 272.8l-6-3c-34.8-17.2-63.4-46-80.4-81-2-4-5.6-7.2-10-8.4-4.2-1.2-9-0.6-12.8 1.8-53.8 33-99.8 78.8-132.8 132.8-2.4 3.8-3 8.6-1.8 12.8 1.2 4.4 4.4 8 8.4 10 35 17 63.8 45.6 81.2 80.6l3 6-79.4 228-6 2.8c-6.6 3.2-13.4 5.8-20.4 8.2-17.8 5.8-36.2 8.8-55 8.8-93.8 0-171-73.2-175.8-166.8-0.2-3-0.2-6.2-0.2-9.2 0-10.8 1-21.6 3-32.2 0-0.4 0.2-0.8 0.2-1.2 7-67.6 25.4-133 55-194.2 28.8-59.6 67-113.4 114-160.4 47-47 100.8-85.2 160.4-114 61.2-29.6 126.4-48 194.2-55 0.4 0 0.8-0.2 1.2-0.2 10.6-2 21.4-3 32.2-3 3 0 6.2 0 9.2 0.2 93.6 4.8 166.8 82 166.8 175.8 0 18.8-3 37.4-8.8 55C789 174 786.2 180.8 783 187.4zM631.6-31.8c-11.4-0.6-22.8 0.2-33.8 2.2-1.2 0.2-2.6 0.4-3.8 0.6-64 6.6-125.8 24-183.6 52-56.2 27.2-107.4 63.4-151.6 107.8C214.4 175 178 226 150.8 282.4c-27.8 57.8-45.4 119.6-52 183.6-0.2 1.2-0.4 2.6-0.6 3.8-1.6 8.6-2.4 17.4-2.4 26.4 0 2.4 0 5 0.2 7.6C100.2 580 163.2 640 240 640c15.4 0 30.6-2.4 45-7.2 3.6-1.2 7.2-2.6 10.6-4l70.4-202.4c-14.4-26-36.6-47.2-63.4-60.2-12.2-6-21.4-16.8-25.2-29.8-3.8-13-2-27 5.2-38.6 35.6-58.2 85.2-107.8 143.4-143.4 7.6-4.6 16.2-7 25-7 4.6 0 9.2 0.6 13.4 2 13 3.8 23.8 13 29.6 25.2 13 26.6 34.2 49 60 63.4l202.4-70.4c1.4-3.6 2.8-7 4-10.6 4.8-14.4 7.2-29.6 7.2-45C768 35.2 708-27.8 631.6-31.8zM317.2 410.4c1.6 0 3.4 0.2 5.2 0.8 8.4 2.8 12.8 11.8 10 20.2l-56.6 168.4c-2.8 8.4-11.8 12.8-20.2 10-8.4-2.8-12.8-11.8-10-20.2l56.6-168.4C304.4 414.6 310.6 410.4 317.2 410.4zM727.8 150.8l-160.6 53.6c-8.4 2.8-17.4-1.8-20.2-10.2-2.8-8.4 1.8-17.4 10.2-20.2l160.6-53.6c1.6-0.6 3.4-0.8 5-0.8 6.6 0 13 4.2 15.2 11C740.8 139 736.2 148 727.8 150.8z"  horiz-adv-x="1024" />

    
    <glyph glyph-name="xinxi" unicode="&#58904;" d="M697.155458 687.74527M241.627872 464.949063m-71.375171 0a3.161 3.161 0 1 0 142.750342 0 3.161 3.161 0 1 0-142.750342 0ZM522.702889 464.971643m-71.375171 0a3.161 3.161 0 1 0 142.750342 0 3.161 3.161 0 1 0-142.750342 0ZM788.762249 464.949063m-71.375171 0a3.161 3.161 0 1 0 142.750342 0 3.161 3.161 0 1 0-142.750342 0ZM702.868181 872.855568 321.154399 872.855568c-175.536406 0-317.857729-121.841323-317.857729-272.110783l0-326.776803c0-112.109372 79.345888-207.893451 192.403616-249.553429l0.02258-145.143815 31.431268 0 0 0.745138 0.225799-0.270959 128.434664 111.973892-20.660639 23.708931-108.044983-94.248644-0.02258 122.428401-0.677398 0 0 0.699978c-111.499713 34.705358-191.25204 125.973451-191.25204 233.431356L35.156957 596.883616c0 137.331158 130.060419 248.627652 290.423109 248.627652l372.749548 0c160.38527 0 290.400529-111.296494 290.400529-248.627652L988.730143 277.761411c0-137.331158-130.037839-248.627652-290.400529-248.627652L622.302977 29.13376l0-27.32172 80.565204 0c175.536406 0 317.812569 121.841323 317.812569 272.155943L1020.68075 600.744785C1020.68075 751.014245 878.404587 872.855568 702.868181 872.855568z"  horiz-adv-x="1024" />

    
    <glyph glyph-name="shezhi2" unicode="&#59148;" d="M681.826462 312.950154c-39.542154-92.632615-146.668308-135.798154-240.364308-97.949538-93.814154 39.384615-137.216 146.668308-97.792 239.025231 37.966769 93.696 146.668308 137.097846 238.907077 97.831385C676.233846 512.315077 721.092923 406.488615 681.826462 312.950154zM889.462154 439.177846 1024 523.145846l-50.254769 120.950154-153.6-36.548923c-21.700923 31.153231-48.836923 56.910769-79.950769 80.108308l35.209846 153.245538L652.957538 891.273846l-82.707692-131.859692c-37.966769 5.435077-76.130462 5.435077-112.64 0L374.665846 892.534154l-122.131692-48.836923 33.988923-153.560615c-31.271385-21.700923-58.525538-48.718769-81.526154-78.690462L52.932923 646.695385 1.378462 525.902769l131.623385-84.204308c-5.198769-37.927385-5.198769-76.130462 0-112.679385L0 246.114462l50.294154-120.713846 153.521231 33.831385c21.700923-29.774769 48.836923-56.910769 79.950769-79.990154l-36.548923-152.221538 122.092308-50.176 85.700923 131.899077c38.006154-5.592615 75.972923-5.592615 112.64 0l84.125538-133.238154 122.249846 50.333538-35.288615 153.481846c29.853538 21.740308 55.689846 47.419077 78.808615 78.690462l154.663385-35.288615L1024 243.554462l-134.537846 82.865231C894.897231 364.347077 894.897231 401.092923 889.462154 439.177846z"  horiz-adv-x="1024" />

    
    <glyph glyph-name="qia" unicode="&#59054;" d="M954.368 13.12 69.568 13.12c-34.88 0-63.168 27.776-63.168 61.888L6.4 440.192l1011.136 0 0-365.248C1017.536 40.896 989.248 13.12 954.368 13.12zM859.584 291.264l-126.4 0 0-123.648 126.4 0L859.584 291.264zM6.4 693.056c0 34.112 28.288 61.824 63.168 61.824l884.8 0c34.88 0 63.168-27.712 63.168-61.824l0-162.944L6.4 530.112 6.4 693.056z"  horiz-adv-x="1024" />

    
    <glyph glyph-name="iconfontyoujiantou" unicode="&#59015;" d="M267.354606 823.994036c-13.515828-12.812817-13.515828-33.603329 0-46.417169l414.889265-393.579937-414.889265-393.565611c-13.515828-12.821003-13.515828-33.604352 0-46.425356 13.508665-12.81998 35.418674-12.81998 48.927339 0l432.159604 410.009118c0 0 18.33867 16.991999 18.33867 29.981848 0 11.971659-18.33867 29.989011-18.33867 29.989011L316.282968 823.994036C302.77328 836.815039 280.863271 836.815039 267.354606 823.994036z"  horiz-adv-x="1024" />

    
    <glyph glyph-name="dengji" unicode="&#59012;" d="M819.739896 342.557122c22.51069 45.163619 26.055422 94.005001 26.055422 147.724483 0 187.556677-144.793734 341.370855-335.046822 341.370855-190.259228 0-335.051939-153.788595-335.051939-341.370855 0-53.725622 3.544733-102.58747 26.055422-147.754159L74.54888 123.622808c0 0 87.035262-32.030507 177.007413-50.573839 59.995419-66.792219 108.715027-138.565892 108.715027-138.565892l118.865201 227.069599c7.28901-0.450255 17.881253 0 25.286919 0 7.401574 0 18.026562-0.450255 25.286919 0l126.433574-214.937281c0 0 53.82079 59.612703 113.790626 126.433574 89.971128 18.542308 177.007413 50.573839 177.007413 50.573839L819.739896 342.557122 819.739896 342.557122zM352.702947 22.47513c0 0-42.168402 54.16769-82.652442 93.556792-57.419757 16.32685-132.284839 32.876782-132.284839 32.876782l88.503706 151.720494c46.87868-61.185524 123.854842-118.955252 201.684442-137.91814L352.702947 22.47513zM504.423441 199.482543c-74.065879 0-283.646152 44.283576-290.798039 290.798039-4.497431 155.01247 136.116097 303.440987 290.798039 303.440987 154.677848 0 302.545594-148.366096 303.440987-303.440987C809.218262 255.811456 578.490344 199.482543 504.423441 199.482543zM656.143934 22.47513l-75.860758 139.077545c77.831646 18.962887 168.063717 77.892021 214.937281 139.077545l88.503706-151.720494c-0.025583 0.030699-74.865081-16.524348-132.284839-32.876782L656.143934 22.47513zM510.748497 691.389926c-108.394732 0-196.260919-87.917352-196.260919-196.367343 0-108.451014 87.866187-196.367343 196.260919-196.367343 108.389616 0 196.255803 87.915305 196.255803 196.367343C707.003276 603.472574 619.137089 691.389926 510.748497 691.389926L510.748497 691.389926zM517.067412 338.560088c-48.697095 0-156.248623 19.271926-164.364465 164.363442-4.325515 77.329203 86.952374 151.720494 164.364465 151.720494 77.407997 0 149.762909-86.938048 151.720494-164.363442C671.357428 388.659113 565.764508 338.560088 517.067412 338.560088z"  horiz-adv-x="1024" />

    
    <glyph glyph-name="shuxuebiaochi" unicode="&#58942;" d="M712.190415 566.037986 956.626543 810.455695l-19.332301 19.332301-244.578368-244.559948L315.346131 585.228047l0 72.915683L171.33011 658.143731l0-72.915683L98.414427 585.228047l0-143.998625 72.915683 0 0-396.675438 396.845307 0 0-72.915683L712.191438-28.361699l0 72.915683 72.915683 0L785.107121 188.571029 712.191438 188.571029 712.190415 566.037986 712.190415 566.037986zM198.673875 630.800989l89.329515 0 0-45.571918-89.329515 0L198.673875 630.800989zM125.757169 468.574211l0 89.311095 45.571918 0 144.016021 0 369.501542 0 0-369.314277-89.329515 0L595.517135 468.574211l-280.171004 0L171.33011 468.574211 125.757169 468.574211zM315.346131 441.230446l233.379305 0L315.346131 207.859327 315.346131 441.230446zM568.175417 422.013779l0-233.44275L334.724481 188.571029 568.175417 422.013779zM684.847673-1.017934l-89.329515 0 0 45.571918 89.329515 0L684.847673-1.017934zM757.763356 161.227264l0-89.328491L712.191438 71.898773 568.175417 71.898773 198.673875 71.898773l0 369.331673 89.329515 0 0-280.003182 280.172027 0L712.191438 161.227264 757.763356 161.227264 757.763356 161.227264z"  horiz-adv-x="1024" />

    
    <glyph glyph-name="lianxi" unicode="&#58888;" d="M919.900084 563.707918 671.054529 763.588271c-42.468231 34.073026-102.32141 30.101575-133.670395-8.94165L161.249521 286.335656c-31.344892-39.018665-22.37766-98.305957 20.090571-132.466987l248.815879-199.86091c42.493813-34.06791 102.351086-30.072923 133.694955 8.946766l376.134613 468.286406C971.381595 470.23913 962.365244 529.570423 919.900084 563.707918L919.900084 563.707918zM403.555126 83.683167c-9.620102-12.050454-35.58752-7.263427-57.876152 10.623965-22.333658 17.933441-32.553417 42.217521-22.884197 54.247508 9.66922 12.050454 35.592636 7.287987 57.881268-10.619872C402.990261 120.003374 413.224346 95.732597 403.555126 83.683167L403.555126 83.683167zM856.617805 414.263258 624.096031 124.815983c-34.093493-42.48972-78.082356-63.833841-98.148367-47.62467L280.94053 273.943418c-20.11206 16.134469-8.80862 63.644529 25.333992 106.158808L538.795273 669.619086c34.091446 42.38125 78.081333 63.738673 98.191346 47.599088l244.98462-196.771549C902.056694 504.237455 890.729717 456.687486 856.617805 414.263258L856.617805 414.263258zM386.66648 837.129194c-69.723991-2.177596-151.622256-48.751331-218.806401-124.471896-70.388117-79.3093-108.456131-171.827437-101.82613-247.413949 1.178849-13.571087 13.164834-23.606651 26.715455-22.422685 0.202615 0.020466 0.38681 0.044002 0.589424 0.064468 13.277398 1.475608 23.041786 13.277398 21.833261 26.694989-5.376451 61.397349 28.968775 141.979642 89.593528 210.29761C262.240633 744.660176 332.558142 786.106124 388.255675 787.788439c13.710256 0.405229 24.314779 11.846816 23.883967 25.468045C411.68427 826.871573 400.287709 837.565123 386.66648 837.129194L386.66648 837.129194zM390.187677 737.213577c-50.79692-1.158383-107.455337-34.003442-151.895479-87.344301-45.197388-54.246485-67.347874-117.777427-59.21873-169.915901 2.01489-13.120832 14.026458-22.200628 27.057239-20.74958 0.361227 0.049119 0.722454 0.094144 1.084705 0.158612 13.481036 2.114151 22.700001 14.709003 20.61041 28.170596-5.901407 37.771255 12.669554 87.889723 48.396243 130.745786 34.954093 41.968857 79.127152 68.317968 115.307166 69.634963 13.570063 0.094144 24.379247 11.713786 24.012903 25.333992C415.155325 726.861812 403.807882 737.62597 390.187677 737.213577L390.187677 737.213577zM390.187677 737.213577"  horiz-adv-x="1024" />

    
    <glyph glyph-name="mn03" unicode="&#58883;" d="M854.786 338.485c63.926 82.629 113.021 152.765 113.021 232.108 0 128.875-108.273 233.276-241.97 233.276s-241.97-104.473-241.97-233.276c0-71.232 42.082-139.249 97.095-212.747l-66.191-21.187-128.291 40.547c15.853 26.52 26.009 52.237 26.009 79.926 0 73.132-59.177 132.382-132.090 132.382-72.985 0-132.090-59.251-132.090-132.382 0-30.539 13.37-60.128 32.731-90.739l-0.585-0.073-180.454-403.722 272.655 102.867 248.107-102.867 232.911 102.867 269.148-102.867-168.035 375.886zM725.91 683.906c64.876 0 117.478-50.703 117.478-113.314s-52.675-113.387-117.478-113.387c-64.949 0-117.478 50.775-117.478 113.387s52.53 113.314 117.478 113.314zM280.472 521.424c35.36 0 64.145-28.785 64.145-64.291 0-35.434-28.785-64.291-64.145-64.291-35.433 0-64.145 28.858-64.145 64.291 0 35.505 28.712 64.291 64.145 64.291zM748.997 126.615l-228.381-98.921-243.431 98.921-181.551-82.703 104.035 268.417 16.95 3.214c20.675-27.616 43.25-56.766 63.853-89.131 25.643 40.985 52.603 75.032 75.616 106.3l158.83-50.995 99.433 32.365c36.383-46.684 75.543-95.926 111.487-150.208 33.68 51.726 68.529 96.876 101.187 138.738l104.912-261.988-182.939 85.99zM50.298 895.847v0zM0.357 836.48v0zM0.357-68.48v0zM50.298-127.847v0zM975.867 895.847v0zM1025.808 836.48v0zM1025.808-68.48v0zM975.867-127.847v0z"  horiz-adv-x="1026" />

    
    <glyph glyph-name="iconset0353" unicode="&#59132;" d="M512 341.333333c-106.666667 0-128-64-128-128s21.333333-213.333333 42.666667-256 42.666667-42.666667 42.666667-42.666667l85.333333 0c0 0 21.333333 0 42.666667 42.666667s42.666667 192 42.666667 256S618.666667 341.333333 512 341.333333zM558.933333-23.466667c-6.4-10.666667-10.666667-17.066667-12.8-19.2l-68.266667 0c-2.133333 2.133333-6.4 8.533333-12.8 19.2-14.933333 32-38.4 170.666667-38.4 236.8 0 64 21.333333 85.333333 85.333333 85.333333 64 0 85.333333-21.333333 85.333333-85.333333C597.333333 147.2 573.866667 8.533333 558.933333-23.466667zM746.666667 469.333333c0 130.133333-104.533333 234.666667-234.666667 234.666667s-234.666667-104.533333-234.666667-234.666667c0-70.4 29.866667-132.266667 78.933333-174.933333 6.4 14.933333 12.8 25.6 21.333333 38.4C341.333333 366.933333 320 416 320 469.333333c0 106.666667 85.333333 192 192 192 106.666667 0 192-85.333333 192-192 0-55.466667-23.466667-104.533333-59.733333-138.666667 8.533333-10.666667 17.066667-23.466667 21.333333-36.266667C714.666667 337.066667 746.666667 398.933333 746.666667 469.333333zM597.333333 469.333333c0 46.933333-38.4 85.333333-85.333333 85.333333s-85.333333-38.4-85.333333-85.333333 38.4-85.333333 85.333333-85.333333S597.333333 422.4 597.333333 469.333333zM469.333333 469.333333c0 23.466667 19.2 42.666667 42.666667 42.666667s42.666667-19.2 42.666667-42.666667-19.2-42.666667-42.666667-42.666667S469.333333 445.866667 469.333333 469.333333zM512 853.333333C300.8 853.333333 128 680.533333 128 469.333333c0-153.6 89.6-285.866667 219.733333-347.733333-2.133333 17.066667-4.266667 34.133333-4.266667 51.2C241.066667 232.533333 170.666667 341.333333 170.666667 469.333333c0 187.733333 153.6 341.333333 341.333333 341.333333 187.733333 0 341.333333-153.6 341.333333-341.333333 0-125.866667-70.4-236.8-172.8-296.533333 0-14.933333-2.133333-32-4.266667-51.2C806.4 185.6 896 315.733333 896 469.333333 896 680.533333 723.2 853.333333 512 853.333333z"  horiz-adv-x="1024" />

    
    <glyph glyph-name="a800" unicode="&#58996;" d="M634.359 476.986h-249.098c-17.15 0-31.137 13.987-31.137 31.137 0 17.15 13.987 31.137 31.137 31.137h249.098c17.271 0 31.137-13.987 31.137-31.137 0-17.15-13.866-31.137-31.137-31.137v0zM575.247 352.437h-189.986c-17.15 0-31.137 13.987-31.137 31.137 0 17.15 13.987 31.137 31.137 31.137h189.986c17.271 0 31.137-13.987 31.137-31.137-0-17.15-13.866-31.137-31.137-31.137v0zM947.921 445.849c0 206.041-195.58 373.646-435.921 373.646-240.34 0-435.921-167.606-435.921-373.646 0-113.359 61.301-219.906 168.214-292.519 14.231-9.73 33.57-5.96 43.3 8.271 9.609 14.231 5.96 33.57-8.271 43.3-89.641 60.693-140.969 148.631-140.969 240.948 0 171.741 167.606 311.372 373.646 311.372 206.041 0 373.646-139.631 373.646-311.372 0-171.741-167.606-311.372-373.646-311.372-1.946 0-3.527-0.73-5.473-1.095-14.717 2.676-29.678-5.108-34.786-19.704-5.96-16.907-45.125-45.368-91.587-71.761 17.028 56.679 8.879 68.721 3.406 76.87-6.568 9.73-17.393 15.447-29.069 15.447-17.15 0-31.137-13.866-31.137-31.137 0-5.717 1.46-10.947 4.135-15.569-3.162-17.758-16.785-59.234-32.11-97.182-4.744-11.798-1.946-25.299 7.176-34.178 5.96-5.717 13.744-8.757 21.65-8.757 4.257 0 8.514 0.851 12.649 2.676 35.516 15.812 143.645 67.261 182.566 122.238 236.935 3.649 428.501 169.673 428.501 373.525v0zM947.921 445.849z"  horiz-adv-x="1024" />

    
    <glyph glyph-name="jiahao3" unicode="&#59174;" d="M512-62.016611c-119.648434 0-232.1288 46.367961-316.736783 130.559656-84.640667 84.255342-131.263217 196.255772-131.263217 315.455235 0 119.168499 46.624271 231.199892 131.232254 315.424271 84.607983 84.191695 197.088348 130.559656 316.736783 130.559656s232.1288-46.367961 316.704099-130.559656c84.67163-84.224378 131.263217-196.255772 131.263217-315.391587 0.032684-119.199462-46.591587-231.232576-131.263217-315.455235C744.1288-15.615966 631.648434-62.016611 512-62.016611zM512 766.016611c-102.623626 0-199.071738-39.743475-271.583282-111.936783-72.480581-72.12794-112.416718-168.063432-112.416718-270.079828s39.903454-197.951888 112.384034-270.047144c72.511544-72.191587 168.959656-111.936783 271.583282-111.936783 102.592662 0 199.071738 39.743475 271.583282 111.936783 72.480581 72.160624 112.416718 168.063432 112.384034 270.079828 0 102.016396-39.903454 197.919204-112.384034 270.016181C711.071738 726.240452 614.592662 766.016611 512 766.016611zM736.00086 415.99914 544.00086 415.99914 544.00086 607.99914c0 17.664722-14.336138 32.00086-32.00086 32.00086s-32.00086-14.336138-32.00086-32.00086l0-192L288.00086 415.99914c-17.664722 0-32.00086-14.336138-32.00086-32.00086s14.336138-32.00086 32.00086-32.00086l192 0 0-192c0-17.695686 14.336138-32.00086 32.00086-32.00086s32.00086 14.303454 32.00086 32.00086L544.00258 351.99914l192 0c17.695686 0 32.00086 14.336138 32.00086 32.00086S753.696546 415.99914 736.00086 415.99914z"  horiz-adv-x="1024" />

    
    <glyph glyph-name="jianpanfuhao" unicode="&#58902;" d="M1140.615935-128 100.934217-128C45.428481-128 0.269445-70.931481 0.269445-16.126302L0.269445 472.378065C0.269445 527.183244 40.362909 574.390064 95.868645 574.390064L598.97695 574.390064C613.149774 718.166088 707.293969 729.806126 782.630881 740.152826 864.757815 751.41564 924.089675 754.487317 924.089675 895.245553L974.368172 895.245553C974.368172 711.214398 871.871171 702.214925 789.528681 690.95211 716.832333 680.982633 660.141038 674.462057 649.309336 574.390064L1128.059783 574.390064C1183.565519 574.390064 1241.280707 527.183244 1241.280707 472.378065L1241.280707-16.126302C1241.280707-70.931481 1196.121671-128 1140.615935-128ZM1186.798863 470.599726C1186.798863 498.02926 1176.775497 518.022103 1149.076518 518.022103L92.473634 518.022103C64.774655 518.022103 54.751289 495.71203 54.751289 468.336386L54.751289-35.310809C54.751289-62.740343 64.774655-72.548153 92.473634-72.548153L1149.076518-72.548153C1176.775497-72.548153 1186.798863-50.23808 1186.798863-22.862436L1186.798863 470.599726ZM1026.640564 143.061993 1132.317019 143.061993 1132.317019 35.229976 1026.640564 35.229976 1026.640564 143.061993ZM971.404273 303.92085 1132.317019 303.92085 1132.317019 196.142722 971.404273 196.142722 971.404273 303.92085ZM971.889275 466.450268 1079.236291 466.450268 1079.236291 357.001579 971.889275 357.001579 971.889275 466.450268ZM863.89559 143.061993 971.296495 143.061993 971.296495 35.229976 863.89559 35.229976 863.89559 143.061993ZM808.659299 303.92085 917.676876 303.92085 917.676876 196.142722 808.659299 196.142722 808.659299 303.92085ZM810.868751 466.450268 916.545206 466.450268 916.545206 357.001579 810.868751 357.001579 810.868751 466.450268ZM649.794337 466.450268 755.470793 466.450268 755.470793 357.001579 649.794337 357.001579 649.794337 466.450268ZM754.985791 196.142722 649.309336 196.142722 649.309336 303.92085 754.985791 303.92085 754.985791 196.142722ZM486.887696 466.450268 594.234712 466.450268 594.234712 357.001579 486.887696 357.001579 486.887696 466.450268ZM593.911378 196.142722 486.564362 196.142722 486.564362 303.92085 593.911378 303.92085 593.911378 196.142722ZM325.867172 466.450268 431.543627 466.450268 431.543627 357.001579 325.867172 357.001579 325.867172 466.450268ZM431.220293 196.142722 325.543837 196.142722 325.543837 303.92085 431.220293 303.92085 431.220293 196.142722ZM377.654563 35.229976 271.978108 35.229976 271.978108 143.061993 377.654563 143.061993 377.654563 35.229976ZM109.233133 303.92085 271.870329 303.92085 271.870329 196.142722 109.233133 196.142722 109.233133 303.92085ZM164.792759 466.450268 270.469214 466.450268 270.469214 357.001579 164.792759 357.001579 164.792759 466.450268ZM216.580149 35.229976 105.838122 35.229976 105.838122 143.061993 216.580149 143.061993 216.580149 35.229976ZM810.222082 35.229976 431.328071 35.229976 431.328071 143.061993 810.222082 143.061993 810.222082 35.229976Z"  horiz-adv-x="1242" />

    
    <glyph glyph-name="xinxi3" unicode="&#58962;" d="M512 857.6C209.92 857.6 0 673.28 0 442.88c0-145.92 66.56-273.92 217.6-348.16l0-184.32 261.12 120.32c10.24 0 23.04-2.56 33.28-2.56 302.08 0 512 184.32 512 414.72C1024 673.28 814.08 857.6 512 857.6zM256 371.2c-43.52 0-76.8 33.28-76.8 76.8 0 43.52 33.28 76.8 76.8 76.8 43.52 0 76.8-33.28 76.8-76.8C332.8 404.48 299.52 371.2 256 371.2zM512 371.2c-43.52 0-76.8 33.28-76.8 76.8 0 43.52 33.28 76.8 76.8 76.8s76.8-33.28 76.8-76.8C588.8 404.48 555.52 371.2 512 371.2zM768 371.2c-43.52 0-76.8 33.28-76.8 76.8 0 43.52 33.28 76.8 76.8 76.8 43.52 0 76.8-33.28 76.8-76.8C844.8 404.48 811.52 371.2 768 371.2z"  horiz-adv-x="1024" />

    
    <glyph glyph-name="zengjia" unicode="&#59178;" d="M984.615385 305.270154 590.729846 305.270154 590.729846-88.615385 433.230769-88.615385 433.230769 305.270154 39.384615 305.270154 39.384615 462.769231l393.846154 0L433.230769 856.615385l157.499077 0 0-393.846154L984.615385 462.769231 984.615385 305.270154z"  horiz-adv-x="1024" />

    
    <glyph glyph-name="iconfont31shuaxin" unicode="&#59024;" d="M872.803 140.006h0.061v0.369zM922.269 420.26c-10.491 10.727-28.947 10.815-39.588 0.366l-18.368-18.059c-9.728 206.461-177.482 367.193-384.915 367.193-212.706 0-385.752-173.045-385.752-385.753 0-212.721 173.045-385.767 385.752-385.767 113.355 0 220.629 50.168 293.924 137.162 3.262 2.496 5.908 5.494 7.907 8.875 0.266 0.322 0.558 0.647 0.853 0.94l1.881 2.998-0.618 0.322c1.263 3.322 1.851 6.525 1.851 9.816 0 16.077-13.049 29.155-29.124 29.155-9.669 0-18.721-5.142-23.982-13.489-62.806-75.444-154.911-118.734-252.691-118.734-181.245 0-328.751 147.447-328.751 328.722 0 181.232 147.507 328.723 328.751 328.723 180.070 0 326.783-145.509 328.693-325.123l-32.71 32.813c-10.552 10.624-29.036 10.654-39.589 0.087-10.991-10.933-10.991-28.713-0.059-39.66l69.065-69.227c5.263-5.32 12.315-8.229 19.778-8.229l0.324 0.029 0.734-0.235c1.589-0.381 3.322-0.851 5.232-0.851 7.376 0 14.343 2.85 19.633 8.023l71.445 70.3c5.349 5.246 8.346 12.315 8.405 19.808 0.059 7.466-2.822 14.477-8.083 19.796z"  horiz-adv-x="1024" />

    
    <glyph glyph-name="huoche" unicode="&#59072;" d="M842.617953 172.437583 842.617953 608.696552c0 65.683978-55.014988 119.812783-121.841999 119.812783L315.015603 728.509335c-66.829058 0-121.843022-54.128805-121.843022-119.812783l0-436.258968c0-59.802014 46.37419-111.277386 104.250342-119.812783L190.310394-78.534402l116.013247 0 116.065436 128.295991 202.77631 0L732.330104-78.534402l110.287849 0-98.524944 131.159202C799.159162 63.97122 842.617953 112.425791 842.617953 172.437583zM320.741002 118.099001c-29.042453 0-55.013965 22.692838-55.013965 54.128805 0 28.574802 23.264866 54.128805 55.013965 54.128805 29.042453 0 55.066153-22.952758 55.066153-54.128805C375.806131 143.862781 352.697831 118.099001 320.741002 118.099001zM709.272969 118.099001c-29.094642 0-55.221696 22.901593-55.221696 54.338582 0 28.366048 23.264866 54.128805 55.221696 54.128805 29.094642 0 55.014988-22.900569 55.014988-54.128805C764.286933 143.862781 740.969878 118.099001 709.272969 118.099001zM729.675648 346.378148 309.185828 346.378148c-34.819017 0-60.791551 25.76378-60.791551 59.802014L248.394277 537.340387c0 34.246989 26.232454 59.750849 60.791551 59.750849l417.418878 0c34.819017 0 60.790528-25.711592 60.790528-59.750849l0-131.159202 3.070942 0C790.466176 371.882008 764.286933 346.378148 729.675648 346.378148zM445.445188 756.875382l147.81351 0c23.264866 0 43.459814 19.881816 43.459814 42.783409 0 22.900569-20.193925 42.782386-43.459814 42.782386L445.445188 842.441177c-23.317055 0-43.512003-19.881816-43.512003-42.782386C401.934209 776.757199 422.128133 756.875382 445.445188 756.875382z"  horiz-adv-x="1024" />

    
    <glyph glyph-name="jiudian" unicode="&#58927;" d="M884.464013 36.886351 884.464013 370.870981c0 52.605102-21.612227 74.217329-74.217329 74.217329L624.704898 445.08831 624.704898 704.840262c0 52.612265-26.910906 74.224492-79.516008 74.224492L216.511125 779.064754c-52.612265 0-74.217329-21.612227-74.217329-74.224492l0-667.952888L68.077491 36.887374l0-37.116339 890.603851 0 0 37.116339L884.464013 36.887374 884.464013 36.886351zM179.402973 36.886351l0 667.952888c0 34.778084 6.916527 37.116339 37.108153 37.116339l333.976444 0c32.43983 0 37.108153-3.977591 37.108153-37.116339l0-667.952888L179.402973 36.886351 179.402973 36.886351zM624.704898 36.886351 624.704898 407.971971l185.54281 0c35.260062 0 37.108153-5.188162 37.108153-37.10099l0-333.983607L624.704898 36.887374 624.704898 36.886351zM290.728454 593.521944l74.217329 0 0-37.108153-74.217329 0L290.728454 593.521944zM402.053935 593.521944l74.217329 0 0-37.108153-74.217329 0L402.053935 593.521944 402.053935 593.521944zM290.728454 482.196463l74.217329 0 0-37.108153-74.217329 0L290.728454 482.196463zM402.053935 482.196463l74.217329 0 0-37.108153-74.217329 0L402.053935 482.196463zM290.728454 370.870981l74.217329 0 0-37.116339-74.217329 0L290.728454 370.870981 290.728454 370.870981zM476.271264 370.870981l0-37.116339-74.217329 0 0 37.116339L476.271264 370.870981z"  horiz-adv-x="1024" />

    
    <glyph glyph-name="duihao" unicode="&#59034;" d="M63.222927 384c0 0 231.767598-189.584869 254.790964-350.823134 0 0 303.906591 497.491565 641.581264 542.003338 0 0-102.837156 74.943876-69.070098 193.395662 0 0-187.255825-18.684548-540.279067-566.637388L184.79375 482.787934 63.222927 384z"  horiz-adv-x="1024" />

    
    <glyph glyph-name="duanxin" unicode="&#58951;" d="M958.359001 609.058802c0 64.308655-52.132334 116.440989-116.440989 116.440989L181.453678 725.499791c-64.308655 0-116.440989-52.132334-116.440989-116.440989l0-448.63995c0-64.308655 52.132334-116.440989 116.440989-116.440989l660.464333 0c64.308655 0 116.440989 52.132334 116.440989 116.440989L958.359001 609.058802zM843.814198 683.544237c12.059664 0 23.444968-3.465938 33.519418-8.598842L530.749016 346.652394c-1.227967-1.161453-1.156336-0.916882-1.752924-1.868557-1.426489-1.067308-6.055926-3.922333-15.449877-3.922333-9.397021 0-14.025435 2.75474-15.4509 3.818979-0.676405 1.077541-0.662079 0.716314-1.995447 1.940189l-353.122503 324.412624c11.609409 7.557116 25.445532 12.509918 40.300868 12.509918L843.814198 683.543214zM916.403446 159.515273c0-40.857547-31.730679-73.582879-72.589248-73.582879L183.27721 85.932394c-40.85857 0-75.28566 32.725332-75.28566 73.582879L107.99155 608.342488c0 10.630105 2.860141 20.735253 6.909363 29.882588l351.486236-322.096882c4.91187-5.302773 19.479657-17.676591 47.009663-17.676591 27.799136 0 42.303478 12.618389 47.076178 17.830087l346.800517 328.899822c6.251378-10.860349 9.129938-23.433712 9.129938-36.838L916.403446 159.515273z"  horiz-adv-x="1024" />

    
    <glyph glyph-name="zuojiantou" unicode="&#58937;" d="M766.016-128c-8.768 0-17.536 3.2-24.192 9.6L224 382.528l517.696 503.744c13.184 12.672 34.752 12.992 48.128 0.448 13.376-12.544 13.632-33.088 0.448-45.888L319.36 382.656l470.848-455.424c13.184-12.8 13.056-33.344-0.256-45.888C783.232-124.864 774.656-128 766.016-128z"  horiz-adv-x="1024" />

    
    <glyph glyph-name="51" unicode="&#59043;" d="M684.549 548.087h-344.804c-26.821 0-48.645 21.82-48.645 48.643v128.042c0 26.821 21.823 48.64 48.645 48.64h58.815c7.633 55.864 55.662 99.046 113.587 99.046 57.926 0 105.956-43.181 113.588-99.046h58.816c26.82 0 48.642-21.819 48.642-48.64v-128.042c-0.001-26.823-21.823-48.643-48.643-48.643zM339.745 726.324c-0.857 0-1.555-0.696-1.555-1.552v-128.042c0-0.858 0.699-1.554 1.555-1.554h344.804c0.857 0 1.555 0.697 1.555 1.554v128.043c0 0.857-0.699 1.552-1.555 1.552h-107.34l2.218 25.577c0.185 2.176 0.277 4.11 0.277 5.912 0 37.249-30.306 67.558-67.558 67.558-37.249 0-67.557-30.307-67.557-67.558 0-1.802 0.091-3.736 0.277-5.912l2.215-25.577h-107.338zM312.19 133.258h398.75v-47.088h-398.75v47.088zM312.19 283.353h398.75v-47.089h-398.75v47.089zM312.19 433.447h398.75v-47.089h-398.75v47.089zM816.403-71.79h-611.015c-32.551 0-59.035 26.484-59.035 59.034l0 637.367c0 32.552 26.484 59.035 59.035 59.035h83.699v40.617c0 26.913 21.899 48.808 48.813 48.808h59.017c7.658 56.057 55.852 99.388 113.978 99.388 58.127 0 106.32-43.331 113.979-99.388h59.018c26.913 0 48.81-21.895 48.81-48.808v-40.617h83.701c32.551 0 59.036-26.483 59.036-59.035v-637.367c0-32.549-26.485-59.034-59.036-59.034zM205.388 636.394c-6.498 0-11.783-5.286-11.783-11.784v-637.367c0-6.498 5.285-11.783 11.783-11.783h611.015c6.499 0 11.786 5.285 11.786 11.783l-0 637.368c0 6.498-5.287 11.784-11.786 11.784l-130.951-0v87.868c0 0.859-0.701 1.557-1.56 1.557h-107.714l2.23 25.665c0.185 2.182 0.277 4.122 0.277 5.932 0 37.379-30.412 67.79-67.79 67.79-37.377 0-67.789-30.41-67.789-67.79 0-1.81 0.091-3.75 0.278-5.932l2.227-25.665h-107.711c-0.86 0-1.561-0.699-1.561-1.557v-87.868h-130.951z"  horiz-adv-x="1024" />

    
    <glyph glyph-name="pinglun" unicode="&#58930;" d="M989.480571 827.768212l23.487122-23.608791L378.682572 171.636467l-75.10404-8.284622-8.395138 8.284622 8.395138 75.281474L937.863653 879.440894l23.373565-23.431357L989.480571 827.768212 989.480571 827.768212 989.480571 827.768212zM809.209177-120.84791 181.854101-120.84791c-99.416482 0-180.271394 80.742369-180.271394 180.038196l0 627.475732c0 99.296841 80.854912 180.093961 180.271394 180.093961l421.13784 0c17.783903 0 32.116472-14.388334 32.116472-32.061722 0-17.680485-14.332569-32.003929-32.116472-32.003929L181.854101 802.694327c-64.120401 0-116.205744-52.085342-116.205744-116.084075l0-627.365216c0-63.997719 52.085342-116.086103 116.205744-116.086103l627.355077 0c64.007858 0 116.095228 52.088384 116.095228 116.086103L925.304405 473.039158c0 17.793029 14.321416 32.126611 31.994804 32.126611 17.793029 0 32.126611-14.333583 32.126611-32.126611l0-413.793108C989.357889-40.105541 908.506018-120.84791 809.209177-120.84791L809.209177-120.84791 809.209177-120.84791zM809.209177-120.84791"  horiz-adv-x="1029" />

    
    <glyph glyph-name="fangzi" unicode="&#59011;" d="M1015.36 700.736l-4.608 14.432-5.6 0-203.072 180.736-60.544 0L741.536 896 205.568 896 16.928 715.168 11.392 715.168 6.816 700.8C2.912 688.448 0 674.752 0 659.904c0-47.584 24.768-89.088 61.568-113.184l0-316.8c0.064-37.376 30.24-67.552 67.552-67.552l740.8-0.064c37.248 0.064 67.424 30.24 67.552 67.616l0 304.384c49.472 20.096 84.64 68.576 84.704 125.6C1022.176 674.752 1019.264 688.448 1015.36 700.736zM786.432 854.816l156.992-139.648-163.872 0-67.36 139.648L786.432 854.816zM532.64 854.816l133.92 0 67.424-139.648-201.344 0L532.64 854.816zM729.12 674.016l0-31.232c-8.16-44.16-46.624-77.824-92.992-77.76-46.432-0.064-84.768 33.536-92.992 77.6L543.136 674.016 729.12 674.016zM491.008 854.816 491.008 854.88l0.544 0 0-139.712L286.496 715.168l55.968 139.648L491.008 854.816zM479.008 674.016l0-31.104c-8.096-44.288-46.496-77.952-92.992-77.888-46.496-0.064-84.896 33.536-92.992 77.76L293.024 674.016 479.008 674.016zM222.048 854.88 298.24 854.88 242.176 715.168 76.384 715.168 222.048 854.88zM91.52 576.704c-29.952 16.128-50.4 47.104-50.4 83.2 0 4.736 0.48 9.376 1.344 14.112l186.432 0 0-31.392c-8.288-44.128-46.624-77.632-92.96-77.6-7.296 0-14.592 1.088-22.4 3.04-0.256 0.128-0.864 0.32-1.632 0.544-7.36 1.952-13.824 4.576-20.064 7.904L91.52 576.704zM754.976 203.456 617.28 203.456 617.28 465.28l137.696 0L754.976 203.456zM896.448 229.92c0-14.496-12.16-26.464-26.528-26.464l-73.824 0 0 302.976-219.968 0 0-302.976L129.12 203.456c-14.368 0-26.528 11.968-26.528 26.464l0 298.528c0.416-0.128 0.864-0.192 1.344-0.352 9.6-2.368 20.448-4.128 32-4.128 56.48 0 104.544 34.368 125.12 83.264 20.448-48.864 68.64-83.264 124.992-83.264 56.48 0 104.544 34.432 124.992 83.36 20.576-48.928 68.64-83.36 125.12-83.36 56.352 0 104.48 34.368 124.992 83.264 20.576-48.864 68.64-83.264 125.12-83.264 3.52 0 6.944 0.192 10.208 0.48L896.48 229.92zM900.832 566.624c-5.6-1.024-10.208-1.568-14.592-1.568-46.496-0.064-84.832 33.472-92.992 77.6L793.248 674.016l186.464 0c0.832-4.736 1.344-9.376 1.344-14.112C981.056 612.608 946.368 573.792 900.832 566.624zM192.416 260.416l315.072 0L507.488 280.96l0 225.472L192.416 506.432 192.416 260.416zM233.44 465.28l232.992 0 0-163.808L233.44 301.472 233.44 465.28zM751.52 342.816l-61.472 0 0-19.712 61.472 0L751.52 342.816z"  horiz-adv-x="1024" />

    
    <glyph glyph-name="dianhua1" unicode="&#59021;" d="M37.568 793.952c-37.12-46.24-119.36-266.464 233.088-627.008 371.392-380 610.912-298.656 652.128-255.872l-248.256 247.904c-34.72-34.592-79.36-3.84-165.12 65.952-56.672 46.144-122.048 108.256-178.656 178.336-39.712 49.056-74.848 100.608-38.592 136.896L37.568 793.952zM1012.544-0.192c16.064 16.096 14.464 40.608-0.16 55.328l0 0.192c0 0-193.696 193.024-193.824 193.12-15.328 15.296-39.84 15.008-55.104-0.096l-70.24-70.24 248.928-248.544c0 0 70.304 70.016 70.208 70.112L1012.544-0.192zM381.664 629.504c16.096 16.128 14.592 40.576 0 55.168L381.664 684.896c0 0-199.296 198.656-199.424 198.688-15.328 15.392-39.904 15.04-55.072-0.032L56.96 813.28l254.432-254.048c0 0 70.272 69.952 70.272 70.08L381.664 629.504z"  horiz-adv-x="1024" />

    
    <glyph glyph-name="shuaxin" unicode="&#59228;" d="M274.875906 636.53969c136.560212 130.066311 352.702947 124.811634 482.776422-11.747555 81.562621-85.635379 108.929922-202.391547 85.003999-309.762973l79.724763 83.290985c7.79043 7.424086 20.142759 7.141654 27.582195-0.675382 7.440459-7.809873 7.122211-20.162202-0.668219-27.578102L838.41063 257.079332c-7.822153-7.439436-20.157085-7.137561-27.591405 0.675382L705.985598 376.771365c-7.441483 7.818059-7.153934 20.145829 0.667196 27.593452 7.79657 7.429203 20.140713 7.145747 27.582195-0.671289l69.980841-82.432431c22.088064 95.706759-2.018983 200.174042-74.822103 276.612968-115.217115 120.959909-306.638819 125.617999-427.601798 10.408047M745.871003 135.031649c-136.558166-130.073474-352.700901-124.821867-482.773352 11.746532-81.562621 85.628216-108.929922 202.388477-85.012186 309.75581l-79.719646-83.290985c-7.788383-7.423063-20.136619-7.141654-27.586288 0.675382-7.435343 7.813966-7.121188 20.162202 0.671289 27.578102l110.88546 112.988354c7.822153 7.435343 20.158109 7.138584 27.589358-0.671289l104.835673-119.021767c7.439436-7.818059 7.153934-20.141736-0.667196-27.593452-7.80578-7.424086-20.142759-7.138584-27.582195 0.671289l-69.980841 82.432431c-22.098297-95.710852 2.018983-200.174042 74.822103-276.607852 115.217115-120.964002 306.638819-125.623116 427.602821-10.413164M888.677477 544.192446"  horiz-adv-x="1024" />

    
    <glyph glyph-name="shouye1" unicode="&#58987;" d="M984.00256 414.976l-20.224 20.224 1.19296 0c-0.74752 0.83968-1.50528 1.67936-2.30912 2.4832l-35.5072 34.14016-22.79936 22.79936c-1.26464 1.26976-2.688 2.25792-4.16256 3.1232l-336.65024 323.69664c-23.99744 23.99744-62.89408 23.99232-86.8864 0L51.93728 447.9232c-16.41472-16.41472-21.54496-39.78752-15.47776-60.60544 1.16736-4.2752 4.31104-10.75712 7.41888-13.55776s9.3696-5.12 15.2576-5.12l125.77792 0c0.8192 0-0.59392 0.128 4.52608 0.2048L189.44-5.12c0-33.93024 25.3696-61.44 59.30496-61.44l542.72 0c33.93024 0 63.58016 27.50976 63.58016 61.44l0 317.44-2.38592 0c-1.2032 10.1632-9.78432 18.07872-20.31616 18.07872s-19.10784-7.91552-20.31616-18.07872L814.08 312.32l0-0.8192c0-0.53248-0.15872-1.03936-0.15872-1.58208s0.15872-1.0496 0.15872-1.58208l0-280.05888c0-29.75744-26.2656-53.87776-56.01792-53.87776L282.1376-25.6C252.38528-25.6 230.4-1.47456 230.4 28.27776L230.4 378.88l-1.07008 0c0.62976 5.12 0.53248 4.96128 0.53248 7.32672 0 12.9536-8.79104 23.75168-21.33504 23.75168-1.7664 0-3.73248 0.03072-3.73248-0.36352C204.8 409.59488 204.8 409.6 204.8 409.6l-15.36 0 0-0.2048C184.32 409.46688 185.73312 409.6 184.91392 409.6L89.02144 409.6c1.13152 12.03712 6.27712 23.76192 15.49824 32.97792l377.48736 326.28736c21.03808 21.03808 55.14752 21.03808 76.19072 0l320.6144-306.61632 76.2368-76.2368c7.99744-8.00256 20.9664-8.00256 28.95872 0C992.00512 394.0096 992.00512 406.97856 984.00256 414.976z"  horiz-adv-x="1024" />

    
    <glyph glyph-name="luxian" unicode="&#58999;" d="M706.935545 392.032777c-103.044669 0-195.447187-45.638453-258.788448-117.575297L448.147097 521.478165l66.411112 0c17.395823 0 27.730988 19.647047 17.702808 33.870691L422.769661 711.808934c-8.595583 12.279404-26.707705 12.279404-35.303288 0l-109.491356-156.460078c-10.02818-14.223643 0.204657-33.870691 17.702808-33.870691l66.411112 0 0-474.394324L448.249425 47.083841c0 142.645748 116.040372 258.788448 258.788448 258.788448 23.84251 0 43.080244 19.340062 43.080244 43.080244C750.118117 372.795043 730.778055 392.032777 706.935545 392.032777z"  horiz-adv-x="1024" />

    
    <glyph glyph-name="guanbi7" unicode="&#59081;" d="M889.104707 508.311237l70.419839 75.851549-19.678178 18.260899-70.236668-75.641771C692.654476 344.093105 514.610454 349.682403 512.432859 349.472626 282.437627 350.600309 86.775342 583.349257 84.820827 585.711048l-20.688181-17.158798c4.218068-5.081739 57.688887-68.527746 140.991128-129.708154l-77.419254-94.330412 20.780279-17.054421 78.625732 95.801926c45.570895-31.146371 98.579179-60.231803 156.648736-79.054497l-34.639938-117.182886 25.764803-7.608282 34.744315 117.550253c32.855292-8.635681 66.927295-14.161534 102.120842-14.33345 0.603751-0.052189 2.295276-0.105401 4.972245-0.105401 13.709233 0 53.500495 1.684362 108.149139 18.088984l30.854728-175.038572 26.447349 4.670369L650.64264 349.098095c48.557926 17.454534 106.129132 46.603411 166.388565 94.158497l55.990199-100.527554 23.481807 13.065574-58.413388 104.879676C854.996888 475.131557 872.018563 490.670461 889.104707 508.311237z"  horiz-adv-x="1024" />

    
    <glyph glyph-name="shouye2" unicode="&#58893;" d="M1008.989013 413.257143 528.684251 893.561905C523.808061 896 516.493775 896 511.617585 893.561905 506.741394 896 499.427109 896 496.989013 893.561905L16.684251 413.257143c-4.87619-4.87619-4.87619-12.190476 0-17.066667l17.066667-17.066667c4.87619-4.87619 12.190476-4.87619 17.066667 0L84.950918 413.257143l0-338.895238c0-109.714286 90.209524-199.92381 199.92381-199.92381l0 0 51.2 0 46.32381 0 63.390476 0 156.038095 0 63.390476 0 70.704762 0c109.714286 0 199.92381 90.209524 199.92381 199.92381L935.846156 413.257143l34.133333-34.133333c4.87619-4.87619 12.190476-4.87619 17.066667 0l17.066667 17.066667C1013.865204 401.066667 1013.865204 408.380952 1008.989013 413.257143zM638.398537-52.419048c0-9.752381-2.438095-17.066667-2.438095-24.380952l-219.428571 0c-2.438095 7.314286-2.438095 17.066667-2.438095 24.380952L414.093775 223.085714c0 56.07619 43.885714 99.961905 99.961905 99.961905l24.380952 0c56.07619 0 99.961905-43.885714 99.961905-99.961905L638.398537-52.419048z"  horiz-adv-x="1024" />

    
    <glyph glyph-name="shouji1" unicode="&#59122;" d="M702.72-97.184 321.28-97.184c-63.008 0-114.24 51.296-114.24 114.272L207.04 750.88c0 63.008 51.264 114.272 114.24 114.272l381.44 0c63.008 0 114.24-51.296 114.24-114.272l0-733.792C816.96-45.888 765.728-97.184 702.72-97.184zM321.28 817.184c-36.544 0-66.24-29.728-66.24-66.272l0-733.792c0-36.576 29.728-66.272 66.24-66.272l381.44 0c36.544 0 66.24 29.728 66.24 66.272L768.96 750.88c0 36.576-29.728 66.272-66.24 66.272L321.28 817.152zM512-37.376c-18.56 0-33.664 15.104-33.664 33.664S493.44 29.92 512 29.92s33.664-15.104 33.664-33.664S530.56-37.376 512-37.376zM512 10.624c-7.904 0-14.336-6.432-14.336-14.336s6.432-14.336 14.336-14.336 14.336 6.432 14.336 14.336S519.904 10.624 512 10.624zM548.896 753.664l-73.824 0c-13.248 0-24 10.752-24 24s10.752 24 24 24l73.824 0c13.248 0 24-10.752 24-24S562.144 753.664 548.896 753.664zM792.96 67.072 231.04 67.072c-13.248 0-24 10.752-24 24s10.752 24 24 24L792.96 115.072c13.248 0 24-10.752 24-24S806.208 67.072 792.96 67.072zM792.96 659.296 231.04 659.296c-13.248 0-24 10.752-24 24s10.752 24 24 24L792.96 707.296c13.248 0 24-10.752 24-24S806.208 659.296 792.96 659.296z"  horiz-adv-x="1024" />

    
    <glyph glyph-name="xianjudi" unicode="&#59004;" d="M512 128c-19.2 0-32 12.8-44.8 25.6l-57.6 96C364.8 339.2 307.2 435.2 300.8 448 268.8 492.8 256 550.4 256 601.6 256 761.6 371.2 896 512 896c140.8 0 256-134.4 256-294.4 0-51.2-12.8-102.4-32-153.6-6.4-12.8-51.2-83.2-96-166.4l-76.8-128C550.4 140.8 531.2 128 512 128zM512 832C409.6 832 320 729.6 320 601.6 320 556.8 332.8 512 352 480c6.4-12.8 57.6-102.4 115.2-192L512 204.8l64 108.8c51.2 83.2 89.6 153.6 96 160C691.2 518.4 704 563.2 704 601.6 704 729.6 620.8 832 512 832zM512 492.8c-70.4 0-128 57.6-128 128s57.6 128 128 128 128-57.6 128-128S582.4 492.8 512 492.8zM512 684.8c-32 0-64-25.6-64-64 0-32 25.6-64 64-64s64 25.6 64 64C576 652.8 544 684.8 512 684.8zM512-128c-249.6 0-512 76.8-512 211.2 0 83.2 108.8 153.6 281.6 192C300.8 275.2 320 268.8 320 249.6c6.4-19.2-6.4-32-25.6-38.4-160-32-230.4-89.6-230.4-128 0-64 172.8-147.2 448-147.2s448 83.2 448 147.2c0 38.4-70.4 96-230.4 128-19.2 6.4-25.6 19.2-25.6 38.4 6.4 19.2 19.2 25.6 38.4 25.6 179.2-32 281.6-108.8 281.6-192C1024-51.2 761.6-128 512-128z"  horiz-adv-x="1024" />

    
    <glyph glyph-name="tongjifenxi2" unicode="&#59045;" d="M98.303398 814.477288 64.303027 814.477288 64.303027-46.477288 959.69595-46.477288 959.69595-13.317051 98.909196-11.60199ZM546.437835 780.038942c0 19.035542-15.403828 34.438347-34.438347 34.438347L408.685471 814.477288c-19.001773 0-34.438347-15.402805-34.438347-34.438347l0-723.202213 172.191734 0L546.438858 780.038942zM339.808778 573.409884c0 19.018146-15.403828 34.438347-34.438347 34.438347L202.05539 607.848231c-19.000749 0-34.437323-15.420201-34.437323-34.438347l0-516.573155 172.191734 0L339.809801 573.409884zM753.066893 366.780827c0 19.035542-15.403828 34.438347-34.438347 34.438347L615.314529 401.219173c-19.001773 0-34.438347-15.402805-34.438347-34.438347l0-309.944098 172.191734 0L753.067916 366.780827zM925.258627 194.590116 821.943586 194.590116c-19.000749 0-34.437323-15.403828-34.437323-34.438347l0-103.31504 172.190711 0L959.696973 160.151769C959.69595 179.186288 944.293145 194.590116 925.258627 194.590116z"  horiz-adv-x="1024" />

    
    <glyph glyph-name="qingchu" unicode="&#58905;" d="M895.592468 571.078793l-277.489942 0L618.102526 746.202299c0 43.784202-36.72339 79.605036-81.618902 79.605036l-48.960085 0c-44.898583 0-81.625042-35.820833-81.625042-79.605036l0-175.123506L128.411625 571.078793c-17.958 0-32.649608-14.334473-32.649608-31.846312l0-159.198815c0-17.521049 14.691607-31.853475 32.649608-31.853475l16.320711 0 0-245.972111c0-70.053496-16.320711-128.169101-16.320711-128.169101 0-17.510816 14.687514-31.844266 32.641421-31.844266l701.890838 0c17.962094 0 32.647561 14.338566 32.647561 31.844266 0 0-16.324804 60.506049-16.324804 131.354654L879.266641 348.179167l16.324804 0c17.958 0 32.645514 14.334473 32.645514 31.846312L928.236959 539.231457C928.237983 556.749436 913.554562 571.078793 895.592468 571.078793zM885.113813 406.167882c0-8.756431-7.343245-15.920598-16.324804-15.920598L155.213038 390.247284c-8.982582 0-16.324804 7.164167-16.324804 15.920598L138.888234 513.092124c0 8.760524 7.343245 15.922644 16.324804 15.922644l293.810652 0L449.02369 738.246093c0 31.045063 25.305339 45.49517 57.133232 45.49517l11.689227 0c31.827893 0 57.127092-14.450107 57.127092-45.49517l0-209.231325 293.814746 0c8.982582 0 16.324804-7.161097 16.324804-15.922644L885.11279 406.167882zM687.47143 196.932464l-8.16496 0c-6.523577 0-12.239765-5.570879-12.239765-11.941983l0-200.726627L536.483624-15.736147 536.483624 184.99048c0 6.371104-5.708002 11.941983-12.245905 11.941983l-8.157797 0c-6.52153 0-12.235672-5.570879-12.235672-11.941983l0-200.726627L365.097232-15.736147 365.097232 184.99048c0 6.371104-5.714142 11.941983-12.249999 11.941983l-8.15575 0c-6.525624 0-12.243859-5.570879-12.243859-11.941983l0-200.726627L171.529655-15.736147c0 0 16.322757 47.092551 16.322757 117.943203l0 245.972111 648.294153 0 0-245.972111c0-70.850651 16.320711-117.943203 16.320711-117.943203L699.712219-15.736147 699.712219 184.99048C699.712219 191.361585 694.003194 196.932464 687.47143 196.932464z"  horiz-adv-x="1024" />

    
    <glyph glyph-name="guding" unicode="&#59071;" d="M381.298 477.172h-157.703l-37.575-38.272 155.61-158.377-278.212-345.128 356.040 265.838 154.71-157.41 38.813 39.51 2.407 157.972 238.838 313.29 71.685-73.013 34.695 35.28-310.185 315.743-34.672-35.257 77.287-79.402-311.737-240.773z"  horiz-adv-x="1024" />

    
    <glyph glyph-name="statistics-b" unicode="&#58994;" d="M1019.904 445.44l-483.328-106.496 417.792-208.896c45.056 73.728 69.632 159.744 69.632 253.952 0 20.48 0 40.96-4.096 61.44zM1007.616 506.88c-49.152 204.8-221.184 360.448-434.176 385.024l-126.976-507.904 561.152 122.88zM737.28-74.752c73.728 36.864 139.264 90.112 188.416 159.744l-417.792 208.896 229.376-368.64zM512 896c-282.624 0-512-229.376-512-512s229.376-512 512-512c61.44 0 118.784 12.288 172.032 28.672l-299.008 483.328 126.976 512z"  horiz-adv-x="1024" />

    
    <glyph glyph-name="icon1" unicode="&#59005;" d="M624.865 383.753l-292.155 292.159c-12.28 12.27-12.28 32.186 0 44.457 12.27 12.28 32.186 12.28 44.457 0l314.388-314.388c12.28-12.27 12.28-32.186 0-44.457l-314.388-314.387c-6.136-6.14-14.183-9.211-22.228-9.211s-16.092 3.071-22.228 9.211c-12.28 12.27-12.28 32.186 0 44.457l292.155 292.16z"  horiz-adv-x="1024" />

    
    </font>
</defs>
</svg>
